<svg xmlns="http://www.w3.org/2000/svg" width="468.128" height="70" viewBox="0 0 468.128 70"><defs><style>.a{fill:#463291;}</style></defs><g transform="translate(10506.999 16306.009)"><path class="a" d="M-2823.665-3070.861h0l-15.989-15.977a27.118,27.118,0,0,1-1.848-2.043,26.834,26.834,0,0,1-1.6-2.177c-.488-.738-.944-1.509-1.355-2.291s-.78-1.577-1.108-2.388-.616-1.632-.863-2.464-.452-1.674-.616-2.521-.288-1.7-.37-2.56-.123-1.721-.123-2.579.042-1.725.123-2.579.207-1.717.37-2.56.372-1.7.616-2.521.537-1.661.863-2.464.7-1.614,1.108-2.387.868-1.554,1.355-2.292a26.826,26.826,0,0,1,1.6-2.177,27.221,27.221,0,0,1,1.848-2.043l15.991-15.979.055.055h-.057v9.109l-10.644,10.635a21.9,21.9,0,0,0-1.478,1.634,21.477,21.477,0,0,0,0,27.167c.4.489.825.967,1.27,1.423l10.847-10.822v9.116l-6.283,6.268,6.288,6.283Z" transform="translate(-7659.459 -13165.148)"/><path class="a" d="M-2351.475-3136.968v4.6l10.169,10.162a23.615,23.615,0,0,1,1.588,1.755q.735.9,1.378,1.873a22.988,22.988,0,0,1,2.12,4.026,23.111,23.111,0,0,1,1.272,4.288,23.3,23.3,0,0,1,.424,4.418,23.381,23.381,0,0,1-.254,3.425l-.472,3.171-2.268-2.266-13.953-13.942v4.563l13.979,13.969.845.843-.559,1.055c-.347.654-.728,1.3-1.135,1.914q-.642.97-1.378,1.873a23.514,23.514,0,0,1-1.588,1.756l-10.169,10.162v4.563l13.232-13.222a25.825,25.825,0,0,0,1.739-1.922q.8-.984,1.5-2.046c.458-.694.887-1.418,1.274-2.153s.732-1.481,1.042-2.243.579-1.533.811-2.315.425-1.573.579-2.37.27-1.6.348-2.406.115-1.619.115-2.424-.039-1.622-.115-2.425-.194-1.614-.348-2.406-.35-1.594-.579-2.37-.5-1.561-.811-2.315-.66-1.516-1.042-2.243-.815-1.459-1.274-2.153-.97-1.39-1.5-2.046a25.72,25.72,0,0,0-1.739-1.922l-13.232-13.222m-1.616-3.9h0l15.989,15.977a27.424,27.424,0,0,1,1.848,2.043,26.937,26.937,0,0,1,1.6,2.177c.488.739.944,1.51,1.355,2.292s.78,1.577,1.109,2.387.616,1.632.863,2.464.452,1.674.616,2.521.287,1.7.369,2.56.123,1.721.123,2.579-.041,1.725-.123,2.579-.206,1.717-.369,2.56-.372,1.7-.616,2.521-.537,1.661-.863,2.464-.7,1.614-1.109,2.388-.868,1.554-1.355,2.292a26.945,26.945,0,0,1-1.6,2.177,27.224,27.224,0,0,1-1.848,2.043l-15.989,15.978V-3080l10.643-10.634a21.909,21.909,0,0,0,1.479-1.635,21.376,21.376,0,0,0,1.281-1.742q.57-.862,1.056-1.779l-14.452-14.442v-9.13l16.71,16.7a21.767,21.767,0,0,0,.236-3.187,21.615,21.615,0,0,0-.394-4.107,21.484,21.484,0,0,0-1.183-3.992,21.381,21.381,0,0,0-1.972-3.744,21.547,21.547,0,0,0-1.281-1.742,21.9,21.9,0,0,0-1.479-1.634l-10.643-10.635Z" transform="translate(-8127.284 -13165.143)"/><path d="M-1384.693-3176.279h-4.668v20.962h-5.263v-20.962h-2.975v-4.256h2.975v-1.785q0-4.348,2.311-6.339t7.254-1.991v4.348a4.9,4.9,0,0,0-3.341.893,4.091,4.091,0,0,0-.961,3.089v1.785h4.668Z" transform="translate(-9048.131 -13098.611)"/><path d="M-1102.786-3004.271a11.58,11.58,0,0,1,4.3-4.554,11.525,11.525,0,0,1,6.018-1.625,11.007,11.007,0,0,1,5.195,1.167,10.533,10.533,0,0,1,3.547,2.906v-3.662h5.263v25.219h-5.263v-3.753a10.368,10.368,0,0,1-3.616,2.975,11.149,11.149,0,0,1-5.218,1.19,11.082,11.082,0,0,1-5.95-1.671,11.836,11.836,0,0,1-4.279-4.668,14.363,14.363,0,0,1-1.579-6.8A13.959,13.959,0,0,1-1102.786-3004.271Zm17.987,2.288a7.556,7.556,0,0,0-2.815-2.929,7.371,7.371,0,0,0-3.753-1.007,7.5,7.5,0,0,0-3.753.984,7.422,7.422,0,0,0-2.815,2.883,9,9,0,0,0-1.076,4.508,9.4,9.4,0,0,0,1.076,4.577,7.582,7.582,0,0,0,2.838,3,7.276,7.276,0,0,0,3.73,1.03,7.365,7.365,0,0,0,3.753-1.007,7.513,7.513,0,0,0,2.815-2.952,9.274,9.274,0,0,0,1.076-4.554,9.121,9.121,0,0,0-1.076-4.531Z" transform="translate(-9325.576 -13269.109)"/><path d="M-486.911-3154.05a11.26,11.26,0,0,1,5.149-1.167,11.619,11.619,0,0,1,6.042,1.6,11.277,11.277,0,0,1,4.256,4.554,14.268,14.268,0,0,1,1.556,6.75,14.523,14.523,0,0,1-1.556,6.8,11.626,11.626,0,0,1-4.279,4.668,11.283,11.283,0,0,1-6.019,1.671,11.368,11.368,0,0,1-5.195-1.145,9.989,9.989,0,0,1-3.593-2.929v3.662h-5.218v-33.869h5.218v12.4A9.908,9.908,0,0,1-486.911-3154.05Zm10.618,7.232a7.377,7.377,0,0,0-2.838-2.883,7.622,7.622,0,0,0-3.776-.984,7.406,7.406,0,0,0-3.731,1.008,7.494,7.494,0,0,0-2.836,2.928,9.136,9.136,0,0,0-1.076,4.531,9.263,9.263,0,0,0,1.076,4.554,7.463,7.463,0,0,0,2.838,2.952,7.4,7.4,0,0,0,3.73,1.007,7.364,7.364,0,0,0,3.776-1.03,7.6,7.6,0,0,0,2.838-3,9.4,9.4,0,0,0,1.076-4.577,8.989,8.989,0,0,0-1.076-4.508Z" transform="translate(-9901.403 -13124.343)"/><path d="M72.94-3106.258,69-3110.195a15.4,15.4,0,0,1-4.989,3.41,15.628,15.628,0,0,1-6.042,1.121,14.308,14.308,0,0,1-6-1.189,9.145,9.145,0,0,1-4.028-3.41,9.353,9.353,0,0,1-1.419-5.149,9.761,9.761,0,0,1,1.876-5.881,12.5,12.5,0,0,1,5.584-4.1,11.313,11.313,0,0,1-1.877-3,8.391,8.391,0,0,1-.549-3.089,6.717,6.717,0,0,1,1.076-3.753,7.362,7.362,0,0,1,3.089-2.608,10.723,10.723,0,0,1,4.668-.961,9.532,9.532,0,0,1,4.6,1.03,6.74,6.74,0,0,1,2.838,2.815,7.12,7.12,0,0,1,.755,3.982H63.374a3.581,3.581,0,0,0-.824-2.632,3.088,3.088,0,0,0-2.38-.938,3.4,3.4,0,0,0-2.449.892,2.886,2.886,0,0,0-.938,2.174,4.806,4.806,0,0,0,.709,2.449,19.658,19.658,0,0,0,2.494,3.135l8.422,8.376,3.249-5.355h5.63l-4.119,7.048-1.144,1.876,7.735,7.689Zm-7.369-7.369-8.421-8.467q-5.4,2.152-5.4,6.5a5.072,5.072,0,0,0,1.739,3.913,6.415,6.415,0,0,0,4.485,1.579A10.13,10.13,0,0,0,65.571-3113.627Z" transform="translate(-10414.501 -13147.669)"/><path d="M696.923-3176.279h-4.669v20.962h-5.263v-20.962h-2.975v-4.256h2.975v-1.785q0-4.348,2.311-6.339t7.254-1.991v4.348a4.9,4.9,0,0,0-3.341.893,4.093,4.093,0,0,0-.961,3.089v1.785h4.668Z" transform="translate(-11017.66 -13098.611)"/><path d="M1017.816-3009.379a9.007,9.007,0,0,1,4.508-1.076v5.4H1021a6.354,6.354,0,0,0-4.646,1.556q-1.579,1.556-1.579,5.4v13.273h-5.218v-25.218h5.218v3.661A8.19,8.19,0,0,1,1017.816-3009.379Z" transform="translate(-11325.67 -13269.104)"/><path d="M1328.311-2995.483h-19.269a6.994,6.994,0,0,0,2.243,4.851,7.076,7.076,0,0,0,4.943,1.831,6.106,6.106,0,0,0,5.95-3.524h5.63a11.36,11.36,0,0,1-4.142,5.7,12.148,12.148,0,0,1-7.437,2.22,12.881,12.881,0,0,1-6.476-1.625,11.562,11.562,0,0,1-4.485-4.577,13.957,13.957,0,0,1-1.625-6.842,14.3,14.3,0,0,1,1.579-6.842,11.1,11.1,0,0,1,4.44-4.554,13.213,13.213,0,0,1,6.568-1.6,12.847,12.847,0,0,1,6.362,1.556,11,11,0,0,1,4.348,4.371,13.176,13.176,0,0,1,1.556,6.476A16.353,16.353,0,0,1,1328.311-2995.483Zm-5.264-4.211a5.939,5.939,0,0,0-2.059-4.623,7.365,7.365,0,0,0-4.989-1.739,6.7,6.7,0,0,0-4.623,1.716,7.178,7.178,0,0,0-2.288,4.646Z" transform="translate(-11603.921 -13269.109)"/><path d="M1852.75-2995.483h-19.269a7,7,0,0,0,2.243,4.851,7.08,7.08,0,0,0,4.943,1.831,6.106,6.106,0,0,0,5.95-3.524h5.63a11.361,11.361,0,0,1-4.142,5.7,12.147,12.147,0,0,1-7.437,2.22,12.881,12.881,0,0,1-6.476-1.625,11.561,11.561,0,0,1-4.485-4.577,13.954,13.954,0,0,1-1.625-6.842,14.293,14.293,0,0,1,1.579-6.842,11.1,11.1,0,0,1,4.439-4.554,13.214,13.214,0,0,1,6.568-1.6,12.847,12.847,0,0,1,6.362,1.556,11,11,0,0,1,4.348,4.371,13.173,13.173,0,0,1,1.556,6.476A16.353,16.353,0,0,1,1852.75-2995.483Zm-5.263-4.211a5.939,5.939,0,0,0-2.06-4.623,7.364,7.364,0,0,0-4.989-1.739,6.7,6.7,0,0,0-4.623,1.716,7.177,7.177,0,0,0-2.288,4.646Z" transform="translate(-12100.121 -13269.109)"/><path d="M2350.947-2659.3a4.027,4.027,0,0,1-2.951-1.2h0a4.026,4.026,0,0,1-1.2-2.951,4.026,4.026,0,0,1,1.2-2.951,4.028,4.028,0,0,1,2.951-1.2,3.973,3.973,0,0,1,2.905,1.2,4.029,4.029,0,0,1,1.2,2.951,4.028,4.028,0,0,1-1.2,2.951A3.973,3.973,0,0,1,2350.947-2659.3Zm0-6.683a2.434,2.434,0,0,0-1.809.725,2.434,2.434,0,0,0-.725,1.809,2.433,2.433,0,0,0,.725,1.809h0a2.433,2.433,0,0,0,1.809.725,2.38,2.38,0,0,0,1.763-.725,2.434,2.434,0,0,0,.725-1.809,2.435,2.435,0,0,0-.725-1.809A2.381,2.381,0,0,0,2350.947-2665.986Z" transform="translate(-12590.908 -13593.498)"/><path d="M2544.661-2990.966h-6.7l-4.463-16.367-4.463,16.366h-6.7l-8.377-26.833h7.032l4.646,17.895,4.727-17.895h6.7l4.5,17.737,4.585-17.737h6.848Zm-5.471-1.616h4.28l7.325-23.6h-3.4l-5.061,19.578-1.564,0-4.972-19.575h-4.2l-5.984,22.656-5.882-22.656h-3.586l7.368,23.6h4.281l5.7-20.89Z" transform="translate(-12749.06 -13262.155)"/><path d="M3256.944-2997.788a13.727,13.727,0,0,1-6.875-1.731,12.392,12.392,0,0,1-4.794-4.89,14.816,14.816,0,0,1-1.725-7.231,15.147,15.147,0,0,1,1.674-7.223,11.953,11.953,0,0,1,4.757-4.878,14.068,14.068,0,0,1,6.962-1.705,13.7,13.7,0,0,1,6.755,1.659,11.844,11.844,0,0,1,4.662,4.686,14.024,14.024,0,0,1,1.657,6.867,17.157,17.157,0,0,1-.193,2.69l-.108.681h-19.042a5.922,5.922,0,0,0,1.87,3.446,6.244,6.244,0,0,0,4.4,1.621,5.314,5.314,0,0,0,5.226-3.074l.222-.45h7.248l-.349,1.06a12.207,12.207,0,0,1-4.429,6.095A13,13,0,0,1,3256.944-2997.788Zm0-26.043a12.476,12.476,0,0,0-6.173,1.5,10.361,10.361,0,0,0-4.122,4.23,13.559,13.559,0,0,0-1.483,6.461,13.23,13.23,0,0,0,1.524,6.453,10.807,10.807,0,0,0,4.177,4.264,12.136,12.136,0,0,0,6.077,1.52,11.42,11.42,0,0,0,6.957-2.061,10.649,10.649,0,0,0,3.446-4.242h-3.967a6.874,6.874,0,0,1-6.436,3.524,7.892,7.892,0,0,1-5.486-2.041,7.8,7.8,0,0,1-2.5-5.388l-.066-.869h19.431a17.263,17.263,0,0,0,.084-1.755,12.431,12.431,0,0,0-1.456-6.086,10.256,10.256,0,0,0-4.034-4.056A12.109,12.109,0,0,0,3256.944-3023.831Zm7.641,10.756h-15.7l.114-.908a7.985,7.985,0,0,1,2.552-5.148,7.515,7.515,0,0,1,5.161-1.921,8.183,8.183,0,0,1,5.517,1.936,6.743,6.743,0,0,1,2.339,5.221Zm-13.818-1.615H3262.9a4.951,4.951,0,0,0-1.72-3.2,6.526,6.526,0,0,0-4.46-1.542,5.867,5.867,0,0,0-4.085,1.511,6.026,6.026,0,0,0-1.865,3.235Z" transform="translate(-13439.374 -13254.921)"/><path d="M3807.123-3142.965h-6.833v-35.485h6.833Zm-5.218-1.616h3.6v-32.253h-3.6Z" transform="translate(-13966.136 -13110.155)"/><path d="M4031.513-3142.965h-6.833v-35.485h6.833Zm-5.218-1.616h3.6v-32.253h-3.6Z" transform="translate(-14178.443 -13110.155)"/><path d="M4273.751-2998.206h-6.788v-14.9a6.59,6.59,0,0,0-1.475-4.643,5.214,5.214,0,0,0-4.033-1.552,5.286,5.286,0,0,0-4.06,1.556,6.525,6.525,0,0,0-1.494,4.639v14.9h-6.833v-26.834h6.833v1.788a10.006,10.006,0,0,1,2.141-1.263,11.312,11.312,0,0,1,4.557-.937,12.163,12.163,0,0,1,5.708,1.328h0a9.626,9.626,0,0,1,4.018,3.989,12.9,12.9,0,0,1,1.426,6.246Zm-5.172-1.616h3.557v-14.067a11.313,11.313,0,0,0-1.229-5.471,8.045,8.045,0,0,0-3.351-3.334h0a10.572,10.572,0,0,0-4.958-1.143,9.7,9.7,0,0,0-3.91.8,7.88,7.88,0,0,0-2.972,2.2l-1.431,1.738v-4.328h-3.6v23.6h3.6v-13.289a8.059,8.059,0,0,1,1.938-5.75,6.9,6.9,0,0,1,5.231-2.06,6.83,6.83,0,0,1,5.212,2.063,8.126,8.126,0,0,1,1.911,5.747Z" transform="translate(-14390.749 -13254.915)"/><path d="M4781.8-2997.788a13.731,13.731,0,0,1-6.876-1.731,12.4,12.4,0,0,1-4.794-4.89,14.821,14.821,0,0,1-1.725-7.231,15.147,15.147,0,0,1,1.675-7.223,11.952,11.952,0,0,1,4.757-4.878,14.067,14.067,0,0,1,6.962-1.705,13.7,13.7,0,0,1,6.755,1.659,11.847,11.847,0,0,1,4.662,4.686,14.019,14.019,0,0,1,1.657,6.867,17.336,17.336,0,0,1-.193,2.69l-.109.681h-19.042a5.925,5.925,0,0,0,1.87,3.446,6.244,6.244,0,0,0,4.4,1.621,5.314,5.314,0,0,0,5.226-3.074l.222-.45h7.247l-.349,1.06a12.2,12.2,0,0,1-4.428,6.095A13,13,0,0,1,4781.8-2997.788Zm0-26.043a12.474,12.474,0,0,0-6.173,1.5,10.358,10.358,0,0,0-4.122,4.23,13.559,13.559,0,0,0-1.484,6.461,13.23,13.23,0,0,0,1.525,6.453,10.811,10.811,0,0,0,4.176,4.264,12.14,12.14,0,0,0,6.078,1.52,11.42,11.42,0,0,0,6.957-2.061,10.658,10.658,0,0,0,3.446-4.242h-3.967a6.875,6.875,0,0,1-6.436,3.524,7.894,7.894,0,0,1-5.487-2.041,7.806,7.806,0,0,1-2.5-5.388l-.066-.869h19.431a17.263,17.263,0,0,0,.085-1.755,12.432,12.432,0,0,0-1.456-6.086,10.253,10.253,0,0,0-4.034-4.056A12.106,12.106,0,0,0,4781.8-3023.831Zm7.64,10.756h-15.7l.114-.908a7.985,7.985,0,0,1,2.552-5.148,7.517,7.517,0,0,1,5.161-1.921,8.181,8.181,0,0,1,5.517,1.936,6.745,6.745,0,0,1,2.34,5.221Zm-13.818-1.615h12.129a4.953,4.953,0,0,0-1.719-3.2,6.528,6.528,0,0,0-4.461-1.542,5.866,5.866,0,0,0-4.084,1.511A6.019,6.019,0,0,0,4775.626-3014.69Z" transform="translate(-14882.126 -13254.921)"/><path d="M5310.412-2997.794a13.561,13.561,0,0,1-5.667-1.148,10.2,10.2,0,0,1-4.045-3.183,8.126,8.126,0,0,1-1.622-4.591l-.033-.84h6.982l.063.739a2.88,2.88,0,0,0,1.221,2.106,4.742,4.742,0,0,0,3.009.908,5.161,5.161,0,0,0,2.947-.7,1.757,1.757,0,0,0,.868-1.512,1.437,1.437,0,0,0-.909-1.385,24.756,24.756,0,0,0-4.129-1.452,42.248,42.248,0,0,1-4.713-1.542,8.945,8.945,0,0,1-3.395-2.462,6.683,6.683,0,0,1-1.5-4.51,7.03,7.03,0,0,1,1.34-4.153,8.741,8.741,0,0,1,3.747-2.9,13.6,13.6,0,0,1,5.424-1.028,11.37,11.37,0,0,1,7.448,2.359,8.622,8.622,0,0,1,3.107,6.511l.042.847h-6.812l-.06-.742a2.917,2.917,0,0,0-1.079-2.14,4.383,4.383,0,0,0-2.83-.826,4.7,4.7,0,0,0-2.691.629,1.61,1.61,0,0,0-.758,1.4,1.42,1.42,0,0,0,.478,1.1,4.422,4.422,0,0,0,1.511.907c.683.252,1.708.576,3.05.964a34.764,34.764,0,0,1,4.61,1.523,9.247,9.247,0,0,1,3.333,2.43,6.688,6.688,0,0,1,1.527,4.407v.016a7.349,7.349,0,0,1-1.337,4.309,8.726,8.726,0,0,1-3.7,2.929A13.39,13.39,0,0,1,5310.412-2997.794Zm-9.637-8.147a6.453,6.453,0,0,0,1.224,2.854,8.6,8.6,0,0,0,3.416,2.675h0a11.967,11.967,0,0,0,5,1,11.784,11.784,0,0,0,4.776-.893,7.132,7.132,0,0,0,3.03-2.38,5.69,5.69,0,0,0,1.043-3.373,5.06,5.06,0,0,0-1.128-3.367,7.641,7.641,0,0,0-2.754-2.009,33.227,33.227,0,0,0-4.4-1.449l-.016,0c-1.384-.4-2.45-.737-3.168-1a6.011,6.011,0,0,1-2.058-1.244,3.014,3.014,0,0,1-.987-2.282,3.23,3.23,0,0,1,1.438-2.719,6.217,6.217,0,0,1,3.626-.927,5.938,5.938,0,0,1,3.851,1.188,4.423,4.423,0,0,1,1.558,2.519h3.64a6.765,6.765,0,0,0-2.445-4.5,9.811,9.811,0,0,0-6.42-1.989,12,12,0,0,0-4.782.895,7.175,7.175,0,0,0-3.073,2.359,5.375,5.375,0,0,0-1.039,3.216,5.06,5.06,0,0,0,1.107,3.454,7.338,7.338,0,0,0,2.785,2.023,40.643,40.643,0,0,0,4.529,1.479h0a25.859,25.859,0,0,1,4.428,1.568,3.034,3.034,0,0,1,1.791,2.826,3.372,3.372,0,0,1-1.559,2.836,6.689,6.689,0,0,1-3.872.992,6.375,6.375,0,0,1-3.994-1.244,4.551,4.551,0,0,1-1.721-2.509Z" transform="translate(-15384.188 -13254.914)"/><path d="M5764.313-2997.794a13.569,13.569,0,0,1-5.668-1.148,10.193,10.193,0,0,1-4.044-3.183,8.126,8.126,0,0,1-1.622-4.591l-.034-.84h6.983l.063.739a2.882,2.882,0,0,0,1.222,2.106,4.74,4.74,0,0,0,3.009.908,5.163,5.163,0,0,0,2.947-.7,1.759,1.759,0,0,0,.868-1.512,1.437,1.437,0,0,0-.909-1.385,24.756,24.756,0,0,0-4.129-1.452,42.2,42.2,0,0,1-4.714-1.542,8.941,8.941,0,0,1-3.394-2.462,6.683,6.683,0,0,1-1.5-4.51,7.024,7.024,0,0,1,1.34-4.153,8.741,8.741,0,0,1,3.747-2.9,13.594,13.594,0,0,1,5.424-1.028,11.37,11.37,0,0,1,7.448,2.359,8.625,8.625,0,0,1,3.107,6.511l.041.847h-6.811l-.061-.742a2.916,2.916,0,0,0-1.078-2.14,4.384,4.384,0,0,0-2.831-.825,4.7,4.7,0,0,0-2.691.629,1.612,1.612,0,0,0-.758,1.4,1.426,1.426,0,0,0,.478,1.1,4.409,4.409,0,0,0,1.512.907c.682.252,1.707.576,3.049.964a34.787,34.787,0,0,1,4.61,1.523,9.236,9.236,0,0,1,3.333,2.43,6.684,6.684,0,0,1,1.527,4.407v.015a7.341,7.341,0,0,1-1.337,4.309,8.731,8.731,0,0,1-3.7,2.929A13.394,13.394,0,0,1,5764.313-2997.794Zm-9.637-8.147a6.441,6.441,0,0,0,1.223,2.854,8.608,8.608,0,0,0,3.416,2.675h0a11.97,11.97,0,0,0,5,1,11.788,11.788,0,0,0,4.777-.893,7.135,7.135,0,0,0,3.029-2.38,5.683,5.683,0,0,0,1.043-3.373,5.055,5.055,0,0,0-1.128-3.367,7.646,7.646,0,0,0-2.753-2.009,33.276,33.276,0,0,0-4.4-1.449l-.016,0c-1.385-.4-2.45-.737-3.17-1a6.025,6.025,0,0,1-2.057-1.244,3.02,3.02,0,0,1-.987-2.282,3.226,3.226,0,0,1,1.439-2.719,6.213,6.213,0,0,1,3.625-.927,5.937,5.937,0,0,1,3.851,1.188,4.418,4.418,0,0,1,1.558,2.519h3.64a6.765,6.765,0,0,0-2.445-4.5,9.806,9.806,0,0,0-6.419-1.989,12,12,0,0,0-4.782.895,7.169,7.169,0,0,0-3.073,2.359,5.369,5.369,0,0,0-1.04,3.216,5.06,5.06,0,0,0,1.107,3.454,7.346,7.346,0,0,0,2.785,2.023,40.643,40.643,0,0,0,4.529,1.479h.006a25.842,25.842,0,0,1,4.427,1.568,3.035,3.035,0,0,1,1.792,2.826,3.375,3.375,0,0,1-1.559,2.836,6.691,6.691,0,0,1-3.872.992,6.371,6.371,0,0,1-3.994-1.244,4.558,4.558,0,0,1-1.722-2.509Z" transform="translate(-15813.647 -13254.914)"/></g></svg>