<svg xmlns="http://www.w3.org/2000/svg" width="211.623" height="70" viewBox="0 0 211.623 70"><defs><style>.a{fill:#463291;}</style></defs><g transform="translate(12562.002 16354.004)"><g transform="translate(-12562.002 -16354.004)"><path class="a" d="M-4018.3-2518.208l6.438,3.729,12.619-7.287v-7.452Z" transform="translate(4040.313 2544.125)"/><path class="a" d="M-4386.047-2806.07v7.5l-28.179,16.292,25.626,14.776-6.465,3.743-32.046-18.519Z" transform="translate(4427.11 2806.07)"/><path class="a" d="M-3877.49-2054.779l-11,6.354v3.72l14.215-8.214-3.212-1.861m0-1.866,6.437,3.728-19.057,11.01v-7.452Z" transform="translate(3919.024 2096.998)"/><path class="a" d="M-3888.385-2252.275l36.223-20.984-28.82-16.654-3.236,1.873,23.2,13.38,2.423,1.4-2.422,1.4-27.373,15.825v3.763m-1.615,2.8v-7.5l28.179-16.291-25.625-14.777,6.463-3.742,32.046,18.52Z" transform="translate(3918.921 2319.473)"/></g><g transform="translate(-12481.248 -16337.258)"><path d="M-1755.253-1497.659h-4.668v20.962h-5.264v-20.962h-2.975v-4.256h2.975v-1.785q0-4.348,2.311-6.339t7.255-1.991v4.348a4.9,4.9,0,0,0-3.341.892,4.092,4.092,0,0,0-.961,3.09v1.785h4.668Z" transform="translate(1768.16 1512.03)"/><path d="M-1450.218-1427.633l-3.936-3.936a15.394,15.394,0,0,1-4.989,3.41,15.627,15.627,0,0,1-6.042,1.122,14.305,14.305,0,0,1-6-1.19,9.151,9.151,0,0,1-4.028-3.41,9.348,9.348,0,0,1-1.419-5.149,9.761,9.761,0,0,1,1.876-5.881,12.5,12.5,0,0,1,5.584-4.1,11.332,11.332,0,0,1-1.876-3,8.39,8.39,0,0,1-.549-3.09,6.713,6.713,0,0,1,1.076-3.753,7.364,7.364,0,0,1,3.089-2.609,10.723,10.723,0,0,1,4.668-.961,9.534,9.534,0,0,1,4.6,1.03,6.742,6.742,0,0,1,2.838,2.815,7.121,7.121,0,0,1,.755,3.982h-5.218a3.58,3.58,0,0,0-.824-2.631,3.089,3.089,0,0,0-2.38-.939,3.4,3.4,0,0,0-2.449.893,2.886,2.886,0,0,0-.939,2.174,4.806,4.806,0,0,0,.71,2.449,19.658,19.658,0,0,0,2.494,3.135l8.422,8.376,3.25-5.355h5.63l-4.119,7.048-1.144,1.876,7.735,7.689Zm-7.369-7.369-8.422-8.468q-5.4,2.152-5.4,6.5a5.073,5.073,0,0,0,1.739,3.913,6.416,6.416,0,0,0,4.485,1.579,10.13,10.13,0,0,0,7.6-3.524Z" transform="translate(1492.325 1462.967)"/><path d="M-826.231-1497.659H-830.9v20.962h-5.264v-20.962h-2.975v-4.256h2.975v-1.785q0-4.348,2.311-6.339t7.254-1.991v4.348a4.9,4.9,0,0,0-3.341.892,4.094,4.094,0,0,0-.961,3.09v1.785h4.668Z" transform="translate(889.162 1512.03)"/><path d="M-547.616-980.678a4.027,4.027,0,0,1-2.951-1.2h0a4.027,4.027,0,0,1-1.2-2.951,4.027,4.027,0,0,1,1.2-2.951,4.028,4.028,0,0,1,2.951-1.2,3.972,3.972,0,0,1,2.905,1.2,4.028,4.028,0,0,1,1.2,2.951,4.027,4.027,0,0,1-1.2,2.951A3.973,3.973,0,0,1-547.616-980.678Zm0-6.682a2.433,2.433,0,0,0-1.809.725,2.434,2.434,0,0,0-.725,1.809,2.434,2.434,0,0,0,.725,1.809h0a2.434,2.434,0,0,0,1.809.724,2.38,2.38,0,0,0,1.763-.724,2.434,2.434,0,0,0,.724-1.809,2.434,2.434,0,0,0-.724-1.809A2.38,2.38,0,0,0-547.616-987.361Z" transform="translate(617.263 1017.141)"/><path d="M-343.1-1319.167a13.351,13.351,0,0,1-6.814-1.735,12.226,12.226,0,0,1-4.677-4.894,15.15,15.15,0,0,1-1.675-7.223,15.15,15.15,0,0,1,1.675-7.224h0a12.079,12.079,0,0,1,4.681-4.874,13.5,13.5,0,0,1,6.81-1.709,13.419,13.419,0,0,1,8.049,2.328,11.543,11.543,0,0,1,4.358,6.651l.265,1.012h-7.24l-.194-.53a5.123,5.123,0,0,0-1.9-2.544,5.733,5.733,0,0,0-3.337-.907,5.5,5.5,0,0,0-4.484,1.977,8.86,8.86,0,0,0-1.711,5.82,8.951,8.951,0,0,0,1.713,5.846,5.472,5.472,0,0,0,4.482,2c2.669,0,4.383-1.13,5.238-3.453l.195-.529h7.264l-.294,1.03a12.111,12.111,0,0,1-4.411,6.534A13,13,0,0,1-343.1-1319.167Zm-10.066-20.313a13.56,13.56,0,0,0-1.484,6.462,13.559,13.559,0,0,0,1.484,6.461,10.637,10.637,0,0,0,4.065,4.26,11.76,11.76,0,0,0,6,1.515,11.424,11.424,0,0,0,7.022-2.1,10.341,10.341,0,0,0,3.484-4.656h-3.966a6.5,6.5,0,0,1-2.328,2.852,7.48,7.48,0,0,1-4.211,1.13,7.088,7.088,0,0,1-5.725-2.581,10.492,10.492,0,0,1-2.085-6.877,10.4,10.4,0,0,1,2.088-6.858,7.116,7.116,0,0,1,5.722-2.554,7.306,7.306,0,0,1,4.261,1.2,6.659,6.659,0,0,1,2.278,2.784h4a9.656,9.656,0,0,0-3.434-4.74,11.848,11.848,0,0,0-7.1-2.02,11.9,11.9,0,0,0-6.006,1.495A10.49,10.49,0,0,0-353.169-1339.48Z" transform="translate(432.293 1355.721)"/><path d="M168.018-1319.167a13.766,13.766,0,0,1-6.85-1.729h0a12.516,12.516,0,0,1-4.84-4.887,14.664,14.664,0,0,1-1.75-7.236,14.4,14.4,0,0,1,1.8-7.219,12.546,12.546,0,0,1,4.937-4.886,14.272,14.272,0,0,1,6.933-1.7,14.275,14.275,0,0,1,6.932,1.7,12.554,12.554,0,0,1,4.937,4.886,14.407,14.407,0,0,1,1.8,7.219,14.116,14.116,0,0,1-1.85,7.227,12.89,12.89,0,0,1-5.05,4.9A14.512,14.512,0,0,1,168.018-1319.167Zm.229-26.043a12.673,12.673,0,0,0-6.158,1.5,10.953,10.953,0,0,0-4.308,4.268,12.808,12.808,0,0,0-1.588,6.42,13.072,13.072,0,0,0,1.545,6.448,10.921,10.921,0,0,0,4.222,4.267h0a12.175,12.175,0,0,0,6.057,1.521,12.916,12.916,0,0,0,6.229-1.527,11.3,11.3,0,0,0,4.425-4.3,12.526,12.526,0,0,0,1.629-6.412,12.812,12.812,0,0,0-1.588-6.42,10.962,10.962,0,0,0-4.308-4.268,12.678,12.678,0,0,0-6.157-1.5Zm-.229,21.511a7.688,7.688,0,0,1-5.83-2.475,9.656,9.656,0,0,1-2.3-6.845,10.652,10.652,0,0,1,1.1-5.024,7.686,7.686,0,0,1,3.042-3.187,8.339,8.339,0,0,1,4.125-1.064,8.473,8.473,0,0,1,4.144,1.062,7.943,7.943,0,0,1,3.108,3.176,10.3,10.3,0,0,1,1.154,5.038,10.1,10.1,0,0,1-1.2,5.069,8.155,8.155,0,0,1-3.175,3.192h0A8.6,8.6,0,0,1,168.018-1323.7Zm.137-16.98a6.743,6.743,0,0,0-3.336.858,6.1,6.1,0,0,0-2.4,2.534,9.073,9.073,0,0,0-.913,4.268,8.119,8.119,0,0,0,1.864,5.74,6.053,6.053,0,0,0,4.652,1.965,7.006,7.006,0,0,0,3.389-.862h0a6.564,6.564,0,0,0,2.546-2.575,8.523,8.523,0,0,0,.992-4.268,8.722,8.722,0,0,0-.951-4.254,6.351,6.351,0,0,0-2.476-2.545,6.877,6.877,0,0,0-3.362-.861Z" transform="translate(-51.046 1355.721)"/></g></g></svg>