<svg xmlns="http://www.w3.org/2000/svg" width="151.16" height="50" viewBox="0 0 151.16 50"><defs><style>.a{fill:#463291;}</style></defs><g transform="translate(12562.002 16354.004)"><g transform="translate(-12562.002 -16354.004)"><path class="a" d="M-4018.3-2521.353l4.6,2.663,9.014-5.205v-5.323Z" transform="translate(4034.023 2539.866)"/><path class="a" d="M-4397.779-2806.07v5.355l-20.128,11.637,18.3,10.555-4.618,2.673-22.89-13.228Z" transform="translate(4427.111 2806.07)"/><path class="a" d="M-3881.095-2055.312l-7.859,4.539v2.657l10.154-5.867-2.294-1.329m0-1.333,4.6,2.663-13.612,7.865v-5.323Z" transform="translate(3910.762 2085.469)"/><path class="a" d="M-3888.846-2263.562l25.873-14.989-20.586-11.9-2.311,1.338,16.574,9.557,1.731,1-1.73,1-19.552,11.3v2.688m-1.154,2v-5.355l20.128-11.636-18.3-10.555,4.617-2.673,22.89,13.228Z" transform="translate(3910.658 2311.561)"/></g><g transform="translate(-12504.32 -16342.043)"><path d="M-1758.941-1501.765h-3.334v14.973h-3.76v-14.973h-2.125v-3.04h2.125v-1.275a5.67,5.67,0,0,1,1.651-4.528q1.651-1.422,5.182-1.422v3.106a3.5,3.5,0,0,0-2.386.638,2.922,2.922,0,0,0-.687,2.207v1.275h3.334Z" transform="translate(1768.16 1512.03)"/><path d="M-1457.763-1436.931l-2.812-2.812a11,11,0,0,1-3.563,2.436,11.162,11.162,0,0,1-4.315.8,10.217,10.217,0,0,1-4.283-.85,6.536,6.536,0,0,1-2.877-2.436,6.677,6.677,0,0,1-1.014-3.678,6.972,6.972,0,0,1,1.34-4.2,8.926,8.926,0,0,1,3.988-2.926,8.093,8.093,0,0,1-1.34-2.141,5.993,5.993,0,0,1-.392-2.207,4.8,4.8,0,0,1,.768-2.681,5.26,5.26,0,0,1,2.207-1.864,7.659,7.659,0,0,1,3.335-.687,6.809,6.809,0,0,1,3.286.736,4.815,4.815,0,0,1,2.027,2.01,5.086,5.086,0,0,1,.54,2.844h-3.727a2.558,2.558,0,0,0-.589-1.88,2.207,2.207,0,0,0-1.7-.67,2.431,2.431,0,0,0-1.749.638,2.061,2.061,0,0,0-.67,1.553,3.433,3.433,0,0,0,.507,1.749,14.043,14.043,0,0,0,1.782,2.239l6.015,5.983,2.321-3.825h4.021l-2.942,5.035-.817,1.34,5.525,5.492Zm-5.263-5.264-6.015-6.048q-3.858,1.537-3.858,4.642a3.623,3.623,0,0,0,1.242,2.8,4.583,4.583,0,0,0,3.2,1.128,7.235,7.235,0,0,0,5.427-2.517Z" transform="translate(1487.84 1462.169)"/><path d="M-829.919-1501.765h-3.335v14.973h-3.76v-14.973h-2.125v-3.04h2.125v-1.275a5.67,5.67,0,0,1,1.651-4.528q1.651-1.422,5.182-1.422v3.106a3.5,3.5,0,0,0-2.387.638,2.924,2.924,0,0,0-.687,2.207v1.275h3.335Z" transform="translate(874.87 1512.03)"/><path d="M-548.8-983.049a2.877,2.877,0,0,1-2.108-.856h0a2.877,2.877,0,0,1-.856-2.108,2.877,2.877,0,0,1,.856-2.108,2.877,2.877,0,0,1,2.108-.856,2.838,2.838,0,0,1,2.075.856,2.878,2.878,0,0,1,.856,2.108,2.877,2.877,0,0,1-.856,2.108A2.838,2.838,0,0,1-548.8-983.049Zm0-4.773a1.738,1.738,0,0,0-1.292.518,1.738,1.738,0,0,0-.518,1.292,1.738,1.738,0,0,0,.518,1.292h0a1.739,1.739,0,0,0,1.292.517,1.7,1.7,0,0,0,1.259-.517,1.739,1.739,0,0,0,.518-1.292,1.738,1.738,0,0,0-.518-1.292A1.7,1.7,0,0,0-548.8-987.822Z" transform="translate(598.549 1009.094)"/><path d="M-346.864-1327.069a9.536,9.536,0,0,1-4.867-1.239,8.733,8.733,0,0,1-3.341-3.5,10.821,10.821,0,0,1-1.2-5.159,10.821,10.821,0,0,1,1.2-5.16h0a8.628,8.628,0,0,1,3.344-3.481,9.641,9.641,0,0,1,4.864-1.221,9.584,9.584,0,0,1,5.749,1.663,8.245,8.245,0,0,1,3.113,4.751l.189.723h-5.172l-.138-.379a3.659,3.659,0,0,0-1.357-1.817,4.1,4.1,0,0,0-2.383-.648,3.928,3.928,0,0,0-3.2,1.412,6.328,6.328,0,0,0-1.222,4.157,6.394,6.394,0,0,0,1.224,4.176,3.909,3.909,0,0,0,3.2,1.426,3.581,3.581,0,0,0,3.741-2.467l.139-.378h5.188l-.21.735a8.651,8.651,0,0,1-3.151,4.667A9.285,9.285,0,0,1-346.864-1327.069Zm-7.19-14.51a9.686,9.686,0,0,0-1.06,4.615,9.685,9.685,0,0,0,1.06,4.615,7.6,7.6,0,0,0,2.9,3.043,8.4,8.4,0,0,0,4.287,1.082,8.16,8.16,0,0,0,5.015-1.5,7.387,7.387,0,0,0,2.488-3.326h-2.833a4.639,4.639,0,0,1-1.663,2.037,5.343,5.343,0,0,1-3.008.807,5.063,5.063,0,0,1-4.089-1.843,7.494,7.494,0,0,1-1.49-4.912,7.427,7.427,0,0,1,1.492-4.9,5.083,5.083,0,0,1,4.087-1.824,5.218,5.218,0,0,1,3.043.855,4.756,4.756,0,0,1,1.627,1.989h2.854a6.9,6.9,0,0,0-2.453-3.386,8.463,8.463,0,0,0-5.072-1.443,8.5,8.5,0,0,0-4.29,1.068A7.493,7.493,0,0,0-354.054-1341.579Z" transform="translate(410.571 1353.179)"/><path d="M164.178-1327.069a9.833,9.833,0,0,1-4.893-1.235h0a8.939,8.939,0,0,1-3.457-3.491,10.474,10.474,0,0,1-1.25-5.168,10.286,10.286,0,0,1,1.285-5.157,8.962,8.962,0,0,1,3.526-3.49,10.194,10.194,0,0,1,4.952-1.215,10.2,10.2,0,0,1,4.952,1.215,8.968,8.968,0,0,1,3.526,3.49,10.29,10.29,0,0,1,1.285,5.157,10.083,10.083,0,0,1-1.321,5.162,9.208,9.208,0,0,1-3.607,3.5A10.367,10.367,0,0,1,164.178-1327.069Zm.163-18.6a9.054,9.054,0,0,0-4.4,1.073,7.824,7.824,0,0,0-3.077,3.048,9.149,9.149,0,0,0-1.134,4.586,9.338,9.338,0,0,0,1.1,4.606,7.8,7.8,0,0,0,3.016,3.048h0a8.7,8.7,0,0,0,4.326,1.086,9.226,9.226,0,0,0,4.449-1.091,8.072,8.072,0,0,0,3.161-3.069,8.947,8.947,0,0,0,1.163-4.58,9.152,9.152,0,0,0-1.134-4.586,7.83,7.83,0,0,0-3.077-3.049,9.056,9.056,0,0,0-4.4-1.073Zm-.163,15.365a5.491,5.491,0,0,1-4.164-1.768,6.9,6.9,0,0,1-1.644-4.89,7.608,7.608,0,0,1,.786-3.589,5.49,5.49,0,0,1,2.173-2.276,5.957,5.957,0,0,1,2.946-.76,6.051,6.051,0,0,1,2.96.758,5.673,5.673,0,0,1,2.22,2.268,7.358,7.358,0,0,1,.824,3.6,7.217,7.217,0,0,1-.861,3.621,5.825,5.825,0,0,1-2.268,2.28h0A6.142,6.142,0,0,1,164.178-1330.306Zm.1-12.129a4.817,4.817,0,0,0-2.383.613,4.355,4.355,0,0,0-1.717,1.81,6.48,6.48,0,0,0-.652,3.048,5.8,5.8,0,0,0,1.331,4.1,4.323,4.323,0,0,0,3.323,1.4,5,5,0,0,0,2.421-.616h0a4.688,4.688,0,0,0,1.819-1.839,6.088,6.088,0,0,0,.709-3.048,6.229,6.229,0,0,0-.68-3.039,4.537,4.537,0,0,0-1.769-1.818,4.91,4.91,0,0,0-2.4-.615Z" transform="translate(-80.627 1353.179)"/></g></g></svg>