<svg xmlns="http://www.w3.org/2000/svg" width="351.089" height="69.999" viewBox="0 0 351.089 69.999"><defs><style>.a{fill:#463291;}</style></defs><g transform="translate(10172.003 10280.004)"><path class="a" d="M-3255.429-2367.89h7l-11.365,49.266h-7Z" transform="translate(-6905.209 -7912.114)"/><path class="a" d="M-3010.184-2083.52h-1.562l4.5-19.385h7l-3,12.924h25.371l-1.508,6.461Z" transform="translate(-7146.523 -8162.831)"/><path class="a" d="M-2503.016-1935.175l10.62-46.035h-3.684l-10.62,46.035h3.684m1.285,1.615h-7l11.365-49.266h7Z" transform="translate(-7622.453 -8276.445)"/><path class="a" d="M-3048.94-1691.274l-.753,3.231h25.368l-.459,1.98-2.539,10.943h3.684l3.748-16.155h-29.047m-1.282-1.615h32.362l-4.5,19.385h-7l3-12.924h-25.371Z" transform="translate(-7108.693 -8550.768)"/><path d="M-1460.863-2213.538h-4.668v20.962h-5.263v-20.962h-2.975v-4.257h2.975v-1.785q0-4.348,2.311-6.339t7.254-1.991v4.348a4.9,4.9,0,0,0-3.341.892,4.094,4.094,0,0,0-.961,3.09v1.785h4.668Z" transform="translate(-8628.28 -8035.079)"/><path d="M-1160.028-2220.489a3.232,3.232,0,0,1-.961-2.38,3.232,3.232,0,0,1,.961-2.38,3.233,3.233,0,0,1,2.38-.961,3.179,3.179,0,0,1,2.334.961,3.231,3.231,0,0,1,.961,2.38,3.23,3.23,0,0,1-.961,2.38,3.181,3.181,0,0,1-2.334.961A3.233,3.233,0,0,1-1160.028-2220.489Zm4.943,4.3v25.219h-5.218v-25.219Z" transform="translate(-8924.219 -8036.687)"/><path d="M-955.554-2145.983v13.959a2.678,2.678,0,0,0,.664,2.037,3.3,3.3,0,0,0,2.266.618h3.2v4.348h-4.119a7.939,7.939,0,0,1-5.4-1.647q-1.877-1.648-1.876-5.355v-13.959h-2.975v-4.257h2.975v-6.27h5.263v6.27h6.133v4.257Z" transform="translate(-9110.798 -8102.634)"/><path d="M-615.239-2143.518l-3.936-3.936a15.4,15.4,0,0,1-4.989,3.41,15.628,15.628,0,0,1-6.042,1.121,14.3,14.3,0,0,1-6-1.19,9.139,9.139,0,0,1-4.028-3.41,9.354,9.354,0,0,1-1.419-5.149,9.761,9.761,0,0,1,1.877-5.881,12.5,12.5,0,0,1,5.584-4.1,11.327,11.327,0,0,1-1.876-3,8.4,8.4,0,0,1-.549-3.09,6.715,6.715,0,0,1,1.076-3.753,7.362,7.362,0,0,1,3.089-2.609,10.72,10.72,0,0,1,4.669-.961,9.53,9.53,0,0,1,4.6,1.03,6.737,6.737,0,0,1,2.838,2.815,7.12,7.12,0,0,1,.755,3.982H-624.8a3.581,3.581,0,0,0-.824-2.632,3.09,3.09,0,0,0-2.38-.938,3.4,3.4,0,0,0-2.449.892,2.885,2.885,0,0,0-.938,2.174,4.806,4.806,0,0,0,.71,2.449,19.652,19.652,0,0,0,2.494,3.135l8.422,8.376,3.25-5.355h5.63l-4.119,7.048-1.144,1.877,7.735,7.689Zm-7.369-7.369-8.422-8.467q-5.4,2.152-5.4,6.5a5.073,5.073,0,0,0,1.739,3.913,6.415,6.415,0,0,0,4.485,1.579,10.13,10.13,0,0,0,7.6-3.524Z" transform="translate(-9415.596 -8084.136)"/><path d="M8.75-2213.538H4.081v20.962H-1.182v-20.962H-4.157v-4.257h2.975v-1.785q0-4.348,2.311-6.339t7.254-1.991v4.348a4.9,4.9,0,0,0-3.341.892,4.1,4.1,0,0,0-.961,3.09v1.785H8.75Z" transform="translate(-10018.76 -8035.079)"/><path d="M329.641-2046.639a9.013,9.013,0,0,1,4.508-1.076v5.4h-1.327a6.354,6.354,0,0,0-4.646,1.556q-1.579,1.556-1.579,5.4v13.273H321.38V-2047.3H326.6v3.662A8.192,8.192,0,0,1,329.641-2046.639Z" transform="translate(-10326.768 -8205.57)"/><path d="M640.139-2032.743H620.87a7,7,0,0,0,2.243,4.852,7.08,7.08,0,0,0,4.943,1.831,6.106,6.106,0,0,0,5.95-3.524h5.63a11.361,11.361,0,0,1-4.142,5.7,12.15,12.15,0,0,1-7.437,2.22,12.875,12.875,0,0,1-6.476-1.625,11.562,11.562,0,0,1-4.485-4.577,13.957,13.957,0,0,1-1.625-6.843,14.3,14.3,0,0,1,1.579-6.842,11.107,11.107,0,0,1,4.44-4.554,13.213,13.213,0,0,1,6.568-1.6,12.845,12.845,0,0,1,6.362,1.556,11,11,0,0,1,4.348,4.371,13.174,13.174,0,0,1,1.556,6.476A16.359,16.359,0,0,1,640.139-2032.743Zm-5.263-4.211a5.939,5.939,0,0,0-2.06-4.623,7.369,7.369,0,0,0-4.989-1.739,6.7,6.7,0,0,0-4.623,1.716,7.177,7.177,0,0,0-2.288,4.646Z" transform="translate(-10605.021 -8205.575)"/><path d="M1164.58-2032.743h-19.269a7,7,0,0,0,2.243,4.852,7.08,7.08,0,0,0,4.943,1.831,6.106,6.106,0,0,0,5.95-3.524h5.63a11.362,11.362,0,0,1-4.142,5.7,12.15,12.15,0,0,1-7.437,2.22,12.875,12.875,0,0,1-6.476-1.625,11.56,11.56,0,0,1-4.485-4.577,13.958,13.958,0,0,1-1.625-6.843,14.3,14.3,0,0,1,1.579-6.842,11.107,11.107,0,0,1,4.44-4.554,13.214,13.214,0,0,1,6.568-1.6,12.845,12.845,0,0,1,6.362,1.556,11,11,0,0,1,4.348,4.371,13.175,13.175,0,0,1,1.556,6.476A16.374,16.374,0,0,1,1164.58-2032.743Zm-5.263-4.211a5.939,5.939,0,0,0-2.06-4.623,7.369,7.369,0,0,0-4.989-1.739,6.7,6.7,0,0,0-4.623,1.716,7.177,7.177,0,0,0-2.288,4.646Z" transform="translate(-11101.223 -8205.575)"/><path d="M1662.779-1696.562a4.029,4.029,0,0,1-2.951-1.2,4.028,4.028,0,0,1-1.2-2.951,4.028,4.028,0,0,1,1.2-2.951,4.029,4.029,0,0,1,2.951-1.2,3.973,3.973,0,0,1,2.905,1.2,4.029,4.029,0,0,1,1.2,2.951,4.029,4.029,0,0,1-1.2,2.951A3.973,3.973,0,0,1,1662.779-1696.562Zm0-6.682a2.434,2.434,0,0,0-1.809.725,2.434,2.434,0,0,0-.725,1.809,2.434,2.434,0,0,0,.725,1.809,2.434,2.434,0,0,0,1.809.725,2.379,2.379,0,0,0,1.763-.725,2.434,2.434,0,0,0,.724-1.809,2.433,2.433,0,0,0-.724-1.809A2.38,2.38,0,0,0,1662.779-1703.245Z" transform="translate(-11592.012 -8529.963)"/><path d="M1868.532-2023.014a15.2,15.2,0,0,1-8.98-2.552,9.679,9.679,0,0,1-4.18-7.092l-.1-.9h6.674l.173.574a4.79,4.79,0,0,0,2.194,2.729,7.856,7.856,0,0,0,4.218,1.09,6.121,6.121,0,0,0,4.536-1.689,6.78,6.78,0,0,0,1.705-5.009v-2.153a12.6,12.6,0,0,1-2.4,1.653,11.588,11.588,0,0,1-5.53,1.308,12.129,12.129,0,0,1-6.441-1.79,12.634,12.634,0,0,1-4.594-4.98,15.224,15.224,0,0,1-1.672-7.173,14.823,14.823,0,0,1,1.676-7.112,12.424,12.424,0,0,1,4.6-4.864,12.376,12.376,0,0,1,6.433-1.739,12.031,12.031,0,0,1,5.565,1.257h0a12.077,12.077,0,0,1,2.37,1.58v-2.425h6.879v26.438a13.746,13.746,0,0,1-1.561,6.584,11.436,11.436,0,0,1-4.549,4.6A14.156,14.156,0,0,1,1868.532-2023.014Zm-11.414-8.925a7.959,7.959,0,0,0,3.368,5.056,13.631,13.631,0,0,0,8.046,2.254,12.569,12.569,0,0,0,6.218-1.453,9.842,9.842,0,0,0,3.918-3.958,12.149,12.149,0,0,0,1.368-5.819v-24.823h-3.648v5.311l-1.458-1.978a9.234,9.234,0,0,0-3.267-2.667,10.433,10.433,0,0,0-4.825-1.078,10.784,10.784,0,0,0-5.6,1.511,10.832,10.832,0,0,0-4.005,4.244,13.221,13.221,0,0,0-1.482,6.345,13.622,13.622,0,0,0,1.486,6.42,11.042,11.042,0,0,0,4.01,4.356,10.536,10.536,0,0,0,5.6,1.551,10,10,0,0,0,4.768-1.117,9.892,9.892,0,0,0,3.326-2.768l1.456-1.957v6.65a8.311,8.311,0,0,1-2.185,6.158,7.757,7.757,0,0,1-5.671,2.156,9.434,9.434,0,0,1-5.073-1.335,6.526,6.526,0,0,1-2.682-3.058Zm10.819-7.644a8.106,8.106,0,0,1-4.138-1.14,8.408,8.408,0,0,1-3.139-3.308,10.228,10.228,0,0,1-1.174-4.964,9.835,9.835,0,0,1,1.18-4.907,8.248,8.248,0,0,1,3.12-3.188,8.328,8.328,0,0,1,4.151-1.089,8.2,8.2,0,0,1,4.157,1.115,8.388,8.388,0,0,1,3.115,3.234h0a9.975,9.975,0,0,1,1.178,4.925,10.1,10.1,0,0,1-1.177,4.945,8.338,8.338,0,0,1-3.117,3.26,8.193,8.193,0,0,1-4.157,1.115Zm0-16.98a6.735,6.735,0,0,0-3.355.879,6.658,6.658,0,0,0-2.51,2.578,8.251,8.251,0,0,0-.971,4.111,8.631,8.631,0,0,0,.977,4.189,6.818,6.818,0,0,0,2.536,2.688,6.513,6.513,0,0,0,3.323.919,6.6,6.6,0,0,0,3.348-.9,6.748,6.748,0,0,0,2.513-2.644,8.515,8.515,0,0,0,.975-4.163,8.386,8.386,0,0,0-.973-4.137,6.8,6.8,0,0,0-2.515-2.625,6.609,6.609,0,0,0-3.348-.9Z" transform="translate(-11776.985 -8191.384)"/><path d="M2412.251-2016.371H2405.1l5.466-13.08-10.252-25.608h7.569l6.546,17.737,6.8-17.737h7.169Zm-4.726-1.615h3.65l14.8-35.458h-3.633l-7.938,20.709-7.643-20.709H2402.7l9.611,24.006Z" transform="translate(-12293.759 -8198.621)"/><path d="M2999.941-2035.472h-6.787v-14.9a6.59,6.59,0,0,0-1.476-4.643,5.212,5.212,0,0,0-4.033-1.552,5.288,5.288,0,0,0-4.061,1.556,6.527,6.527,0,0,0-1.494,4.639v14.9H2975.3v-14.9a6.59,6.59,0,0,0-1.476-4.643,5.212,5.212,0,0,0-4.033-1.552,5.286,5.286,0,0,0-4.061,1.556,6.527,6.527,0,0,0-1.494,4.639v14.9h-6.833v-26.834h6.833v1.785a9.965,9.965,0,0,1,2.115-1.258,11.17,11.17,0,0,1,4.538-.938,12.065,12.065,0,0,1,5.784,1.378,9.534,9.534,0,0,1,3.27,2.87,9.551,9.551,0,0,1,3.186-2.8,11.407,11.407,0,0,1,5.61-1.452,12.159,12.159,0,0,1,5.707,1.328h0a9.766,9.766,0,0,1,4.038,3.984,12.73,12.73,0,0,1,1.452,6.251Zm-5.172-1.615h3.556v-14.067a11.144,11.144,0,0,0-1.248-5.466,8.174,8.174,0,0,0-3.376-3.339h0a10.566,10.566,0,0,0-4.957-1.144,9.806,9.806,0,0,0-4.825,1.249,7.7,7.7,0,0,0-3.24,3.294l-.7,1.405-.734-1.389a8.009,8.009,0,0,0-3.331-3.374,10.465,10.465,0,0,0-5.018-1.185,9.554,9.554,0,0,0-3.885.8,7.916,7.916,0,0,0-2.952,2.2l-1.431,1.738v-4.327h-3.6v23.6h3.6v-13.289a8.058,8.058,0,0,1,1.938-5.751,6.9,6.9,0,0,1,5.231-2.059,6.83,6.83,0,0,1,5.212,2.063,8.124,8.124,0,0,1,1.912,5.747v13.289h3.557v-13.289a8.058,8.058,0,0,1,1.938-5.75,6.9,6.9,0,0,1,5.231-2.06,6.83,6.83,0,0,1,5.212,2.063,8.124,8.124,0,0,1,1.912,5.747Z" transform="translate(-12820.855 -8191.374)"/></g></svg>