<svg xmlns="http://www.w3.org/2000/svg" width="333.326" height="150" viewBox="0 0 333.326 150"><defs><style>.a{fill:#463291;}</style></defs><g transform="translate(-2738 -2563.999)"><g transform="translate(2836.058 2563.999)"><path class="a" d="M385.415,264.068l92.311-12.973a10.149,10.149,0,0,1,1.277-10c.053-.071.108-.143.165-.214l6.006,4.693a2.54,2.54,0,0,0,2.3,4.15c.046-.007.092-.013.134-.023l18.416-2.585.049-.007.061-.009a10.158,10.158,0,1,0-9.642-16.01l-6.623,8.479-6-4.691,6.419-8.216c.076-.107.157-.215.237-.321a17.782,17.782,0,1,1,16.672,28.3L426.2,266.029a134.122,134.122,0,0,1-17.691,1.16,98.9,98.9,0,0,1-12.764-.838,64.662,64.662,0,0,1-7.735-1.49c-1.678-.442-2.562-.781-2.6-.795Z" transform="translate(-385.401 -219.254)"/><path class="a" d="M520.518,370.032a16,16,0,0,1-28.639,7.392c-.071-.094-.142-.191-.211-.286l-.022-.029-.022-.029-5.323-6.814,3.2-2.5,5.508,7.054a11.936,11.936,0,1,0,11.309-18.839l-.11-.016-18.364-2.577c-.076-.014-.139-.023-.187-.03a4.317,4.317,0,0,0-4.767,5.393l-3.342,2.609a8.379,8.379,0,0,1-.238-6.933l.878-2.121-85.032-11.948q.381-.054.764-.1a97.481,97.481,0,0,1,12.534-.822,132.826,132.826,0,0,1,17.451,1.145l80.981,11.381a16,16,0,0,1,13.631,18.068v.009m1.76.248A17.782,17.782,0,0,0,507.147,350.2l-.011,0-80.988-11.382a134.169,134.169,0,0,0-17.691-1.161,98.9,98.9,0,0,0-12.764.838,64.644,64.644,0,0,0-7.734,1.489c-1.678.442-2.562.781-2.6.795h0l92.311,12.974a10.146,10.146,0,0,0,1.277,10c.054.071.108.143.166.214l6.006-4.691a2.54,2.54,0,0,1,2.3-4.15c.046.007.092.013.135.022l18.416,2.585.11.015a10.158,10.158,0,0,1,8.653,11.466h0v.006a10.158,10.158,0,0,1-18.293,4.535l-6.624-8.478-6,4.69,6.419,8.216c.076.107.157.215.237.321a17.782,17.782,0,0,0,31.816-8.218Z" transform="translate(-385.359 -307.584)"/></g><g transform="translate(2738 2662.165)"><path d="M10.33-149.745h7.236v-30.242h6.418v-6.141H17.566V-188.7c0-4.16,1.51-5.745,5.915-5.745v-6.273c-9.061,0-13.151,3.632-13.151,12.017v2.575H6.24v6.141h4.09Zm20.01,0h7.173v-36.383H30.34Zm3.65-41.2a4.422,4.422,0,0,0,3.228-1.414,4.875,4.875,0,0,0,1.3-3.406,4.875,4.875,0,0,0-1.3-3.406,4.422,4.422,0,0,0-3.228-1.414,4.432,4.432,0,0,0-3.264,1.395,4.888,4.888,0,0,0-1.329,3.425,4.888,4.888,0,0,0,1.329,3.425,4.432,4.432,0,0,0,3.264,1.395Zm30.9,41.2H73L61.8-168.167,73-186.127H65.515L58.467-173.78l-7.488-12.348H42.862l11.2,18.488-11.2,17.894H50.35L57.4-162.092ZM106.164-185.4c.44-6.273-3.65-11.291-11.263-11.291-7.488,0-12.144,4.556-12.144,10.565,0,3.235.881,5.679,3.335,8.782-6.922,2.971-10.257,8.188-10.257,14.395,0,8.584,6.292,14.064,15.731,14.064a19.8,19.8,0,0,0,15.165-6.537l5.412,5.679h9.376l-10.634-11.093c.5-.858,1.07-1.783,1.573-2.707l5.663-10.169h-7.74l-4.468,7.726L94.334-178.072c-3.083-3.5-4.4-5.547-4.4-8.056a4.388,4.388,0,0,1,4.656-4.424c2.706,0,4.531,1.783,4.4,5.15Zm-14.6,30.11c-5.16,0-8.558-3.5-8.558-7.924,0-4.094,2.328-7.263,7.425-9.376l11.578,12.216C98.991-157.008,95.656-155.291,91.566-155.291Zm35.552,5.547h7.236v-30.242h6.418v-6.141h-6.418V-188.7c0-4.16,1.51-5.745,5.915-5.745v-6.273c-9.061,0-13.151,3.632-13.151,12.017v2.575h-4.09v6.141h4.09ZM154.3-168.894c0-7.725,3.272-10.037,8.558-10.037h1.825v-7.792a11.186,11.186,0,0,0-10.383,5.877v-5.282h-7.173v36.383H154.3Zm31.588-11.489c5.349,0,9.565,3.566,9.69,9.178H176.388c.755-5.745,4.656-9.178,9.5-9.178Zm16.235,19.809h-7.74a8.365,8.365,0,0,1-8.18,5.084c-5.286,0-9.376-3.632-9.879-9.64h26.491a24.348,24.348,0,0,0,.252-3.7c0-10.7-6.985-17.894-16.864-17.894-10.257,0-17.3,7.329-17.3,18.753s7.362,18.819,17.3,18.819c8.495,0,13.969-5.084,15.92-11.423Zm22.59-19.809c5.349,0,9.565,3.566,9.69,9.178H215.212C215.967-176.949,219.869-180.383,224.714-180.383Zm16.235,19.809h-7.74a8.365,8.365,0,0,1-8.18,5.084c-5.286,0-9.376-3.632-9.879-9.64H241.64a24.346,24.346,0,0,0,.252-3.7c0-10.7-6.985-17.894-16.864-17.894-10.257,0-17.3,7.329-17.3,18.753s7.362,18.819,17.3,18.819c8.495,0,13.969-5.084,15.92-11.423Z" transform="translate(-6.24 200.72)"/><path d="M10.33-149.745h7.236v-30.242h6.418v-6.141H17.566V-188.7c0-4.16,1.51-5.745,5.915-5.745v-6.273c-9.061,0-13.151,3.632-13.151,12.017v2.575H6.24v6.141h4.09Zm20.01,0h7.173v-36.383H30.34Zm3.65-41.2a4.422,4.422,0,0,0,3.228-1.414,4.875,4.875,0,0,0,1.3-3.406,4.875,4.875,0,0,0-1.3-3.406,4.422,4.422,0,0,0-3.228-1.414,4.432,4.432,0,0,0-3.264,1.395,4.888,4.888,0,0,0-1.329,3.425,4.888,4.888,0,0,0,1.329,3.425,4.432,4.432,0,0,0,3.264,1.395Zm30.9,41.2H73L61.8-168.167,73-186.127H65.515L58.467-173.78l-7.488-12.348H42.862l11.2,18.488-11.2,17.894H50.35L57.4-162.092ZM106.164-185.4c.44-6.273-3.65-11.291-11.263-11.291-7.488,0-12.144,4.556-12.144,10.565,0,3.235.881,5.679,3.335,8.782-6.922,2.971-10.257,8.188-10.257,14.395,0,8.584,6.292,14.064,15.731,14.064a19.8,19.8,0,0,0,15.165-6.537l5.412,5.679h9.376l-10.634-11.093c.5-.858,1.07-1.783,1.573-2.707l5.663-10.169h-7.74l-4.468,7.726L94.334-178.072c-3.083-3.5-4.4-5.547-4.4-8.056a4.388,4.388,0,0,1,4.656-4.424c2.706,0,4.531,1.783,4.4,5.15Zm-14.6,30.11c-5.16,0-8.558-3.5-8.558-7.924,0-4.094,2.328-7.263,7.425-9.376l11.578,12.216C98.991-157.008,95.656-155.291,91.566-155.291Zm35.552,5.547h7.236v-30.242h6.418v-6.141h-6.418V-188.7c0-4.16,1.51-5.745,5.915-5.745v-6.273c-9.061,0-13.151,3.632-13.151,12.017v2.575h-4.09v6.141h4.09ZM154.3-168.894c0-7.725,3.272-10.037,8.558-10.037h1.825v-7.792a11.186,11.186,0,0,0-10.383,5.877v-5.282h-7.173v36.383H154.3Zm31.588-11.489c5.349,0,9.565,3.566,9.69,9.178H176.388c.755-5.745,4.656-9.178,9.5-9.178Zm16.235,19.809h-7.74a8.365,8.365,0,0,1-8.18,5.084c-5.286,0-9.376-3.632-9.879-9.64h26.491a24.348,24.348,0,0,0,.252-3.7c0-10.7-6.985-17.894-16.864-17.894-10.257,0-17.3,7.329-17.3,18.753s7.362,18.819,17.3,18.819c8.495,0,13.969-5.084,15.92-11.423Zm22.59-19.809c5.349,0,9.565,3.566,9.69,9.178H215.212C215.967-176.949,219.869-180.383,224.714-180.383Zm16.235,19.809h-7.74a8.365,8.365,0,0,1-8.18,5.084c-5.286,0-9.376-3.632-9.879-9.64H241.64a24.346,24.346,0,0,0,.252-3.7c0-10.7-6.985-17.894-16.864-17.894-10.257,0-17.3,7.329-17.3,18.753s7.362,18.819,17.3,18.819c8.495,0,13.969-5.084,15.92-11.423Z" transform="translate(-6.24 200.72)"/><path d="M1864.394,167.828A16.169,16.169,0,0,1,1881.17,184.8a16.708,16.708,0,0,1-4.983,12.41,17.346,17.346,0,0,1-12.124,4.631,16.343,16.343,0,0,1-11.739-4.6,17.161,17.161,0,0,1-4.707-12.439,16.169,16.169,0,0,1,16.777-16.975m-.33,31.034c6.231,0,12.937-4.4,12.937-14.059,0-9.614-6.6-13.993-12.739-13.993-6.242,0-12.541,4.327-12.541,13.993,0,9.712,6.2,14.059,12.343,14.059m-40.08-31.034c7.076,0,11.974,2.937,14.3,8.528h-4.472c-1.791-3.669-5.308-5.745-9.828-5.745-7.217,0-11.88,5.57-11.88,14.191,0,8.794,4.552,14.257,11.88,14.257,4.7,0,8-1.93,9.828-5.745h4.409c-2.446,5.453-7.517,8.528-14.238,8.528a15.561,15.561,0,0,1-11.545-4.581c-2.946-3.063-4.505-7.371-4.505-12.46,0-5.059,1.557-9.346,4.5-12.4a15.585,15.585,0,0,1,11.547-4.574m-28.251,27.8h.108a2.975,2.975,0,0,1,2.927,3.016v.1a2.977,2.977,0,0,1-2.977,2.968h-.093a2.986,2.986,0,0,1-2.95-3.022v-.114a3,3,0,0,1,2.984-2.95h0m68.663-29.576c-10.367,0-18.554,7.329-18.554,18.753s7.858,18.819,18.224,18.819c10.433,0,18.885-7.4,18.885-18.819S1874.76,166.048,1864.393,166.048Zm-.33,31.034c-5.679,0-10.565-4.028-10.565-12.282s5.084-12.216,10.763-12.216c5.613,0,10.961,3.962,10.961,12.216S1869.675,197.082,1864.063,197.082Zm-40.08-31.034c-10.433,0-17.828,7.4-17.828,18.753,0,11.423,7.4,18.819,17.828,18.819,8.914,0,14.725-4.952,16.772-12.083h-8.122c-1.387,3.764-4.16,5.745-8.65,5.745-6.075,0-10.1-4.49-10.1-12.48,0-7.924,4.028-12.414,10.1-12.414,4.49,0,7.4,2.245,8.65,5.745h8.122c-2.047-7.659-7.858-12.083-16.772-12.083Zm-28.252,27.8a4.763,4.763,0,0,0-4.762,4.706v.115a4.764,4.764,0,0,0,4.706,4.82h.12a4.749,4.749,0,0,0,4.749-4.743v-.076a4.749,4.749,0,0,0-4.677-4.82h-.135Z" transform="translate(-1549.621 -151.829)"/></g></g></svg>