<svg xmlns="http://www.w3.org/2000/svg" width="322.023" height="50" viewBox="0 0 322.023 50"><defs><style>.a{fill:#463291;}</style></defs><g transform="translate(-3146.999 -2563.999)"><g transform="translate(3146.999 2563.999)"><path class="a" d="M385.415,247.979l59.171-8.316a6.505,6.505,0,0,1,.818-6.408c.034-.045.069-.092.106-.137l3.85,3.008a1.628,1.628,0,0,0,1.471,2.66c.03,0,.059-.008.086-.014l11.8-1.657.031,0,.039-.006a6.511,6.511,0,1,0-6.18-10.262l-4.245,5.435-3.849-3.007L452.633,224c.049-.069.1-.138.152-.206a11.4,11.4,0,1,1,10.687,18.142l-51.911,7.3a85.973,85.973,0,0,1-11.34.744,63.392,63.392,0,0,1-8.182-.537,41.446,41.446,0,0,1-4.958-.955c-1.075-.283-1.642-.5-1.666-.509Z" transform="translate(-385.406 -219.254)"/><path class="a" d="M472,358.408a10.259,10.259,0,0,1-18.358,4.738c-.046-.061-.091-.122-.135-.183l-.014-.018-.014-.018-3.412-4.368,2.053-1.6,3.531,4.522A7.651,7.651,0,1,0,462.9,349.4l-.071-.01-11.771-1.652c-.049-.009-.089-.015-.12-.019a2.767,2.767,0,0,0-3.056,3.457l-2.142,1.672a5.371,5.371,0,0,1-.152-4.444l.563-1.36-54.5-7.659q.244-.035.49-.067a62.484,62.484,0,0,1,8.034-.527,85.142,85.142,0,0,1,11.186.734l51.908,7.3A10.259,10.259,0,0,1,472,358.4v.006m1.128.159a11.4,11.4,0,0,0-9.7-12.873h-.007L411.5,338.4a85.994,85.994,0,0,0-11.34-.744,63.394,63.394,0,0,0-8.182.537,41.436,41.436,0,0,0-4.958.955c-1.076.283-1.642.5-1.666.509h0l59.171,8.316a6.5,6.5,0,0,0,.819,6.408c.034.045.069.092.106.137l3.85-3.007a1.628,1.628,0,0,1,1.471-2.66c.03,0,.059.008.086.014l11.8,1.657.071.01a6.512,6.512,0,0,1,5.547,7.35h0v0a6.512,6.512,0,0,1-11.726,2.907l-4.246-5.435-3.848,3.007,4.114,5.266c.049.069.1.138.152.206a11.4,11.4,0,0,0,20.394-5.268Z" transform="translate(-385.359 -318.379)"/></g><g transform="translate(3247.907 2572.464)"><path d="M8.991-168.045h4.867V-187.43h4.317v-3.936H13.858v-1.651c0-2.666,1.016-3.682,3.979-3.682v-4.021c-6.095,0-8.846,2.328-8.846,7.7v1.651H6.24v3.936H8.991Zm13.459,0h4.825v-23.321H22.45Zm2.455-26.411a3.044,3.044,0,0,0,2.171-.906,3.044,3.044,0,0,0,.876-2.183,3.044,3.044,0,0,0-.876-2.183,3.044,3.044,0,0,0-2.171-.906,3.053,3.053,0,0,0-2.2.894,3.053,3.053,0,0,0-.894,2.2,3.053,3.053,0,0,0,.894,2.2A3.053,3.053,0,0,0,24.905-194.456Zm20.781,26.411h5.46l-7.534-11.809,7.534-11.512H46.11l-4.74,7.915-5.037-7.915h-5.46l7.534,11.851-7.534,11.47H35.91l4.74-7.915ZM73.452-190.9c.3-4.021-2.455-7.238-7.576-7.238-5.037,0-8.169,2.92-8.169,6.772a8.084,8.084,0,0,0,2.243,5.629c-4.656,1.9-6.9,5.248-6.9,9.227,0,5.5,4.232,9.015,10.581,9.015a13.634,13.634,0,0,0,10.2-4.19l3.64,3.64h6.306l-7.153-7.111c.339-.55.72-1.143,1.058-1.735l3.809-6.518H76.287l-3.005,4.952L65.495-186.2c-2.074-2.243-2.963-3.555-2.963-5.164a2.89,2.89,0,0,1,3.132-2.836c1.82,0,3.047,1.143,2.963,3.3Zm-9.819,19.3c-3.471,0-5.756-2.243-5.756-5.079,0-2.624,1.566-4.656,4.994-6.01l7.788,7.83A9.263,9.263,0,0,1,63.632-171.6Zm23.913,3.555h4.867V-187.43H96.73v-3.936H92.413v-1.651c0-2.666,1.016-3.682,3.979-3.682v-4.021c-6.095,0-8.846,2.328-8.846,7.7v1.651H84.795v3.936h2.751Zm18.284-12.274c0-4.952,2.2-6.433,5.756-6.433h1.227v-4.994a7.6,7.6,0,0,0-6.984,3.767v-3.386h-4.825v23.321h4.825Zm21.247-7.365c3.6,0,6.433,2.286,6.518,5.883H120.686a6.352,6.352,0,0,1,6.391-5.883Zm10.92,12.7h-5.206a5.646,5.646,0,0,1-5.5,3.259,6.415,6.415,0,0,1-6.645-6.179h17.819a14.885,14.885,0,0,0,.169-2.37c0-6.857-4.7-11.47-11.343-11.47-6.9,0-11.639,4.7-11.639,12.02s4.952,12.063,11.639,12.063c5.714,0,9.4-3.259,10.708-7.322Zm15.195-12.7c3.6,0,6.433,2.286,6.518,5.883H146.8A6.352,6.352,0,0,1,153.192-187.684Zm10.92,12.7h-5.206a5.646,5.646,0,0,1-5.5,3.259,6.415,6.415,0,0,1-6.645-6.179h17.819a14.887,14.887,0,0,0,.169-2.37c0-6.857-4.7-11.47-11.343-11.47-6.9,0-11.639,4.7-11.639,12.02s4.952,12.063,11.639,12.063c5.714,0,9.4-3.259,10.708-7.322Z" transform="translate(-6.24 200.72)"/><path d="M1838.033,167.189a10.364,10.364,0,0,1,10.754,10.881,10.71,10.71,0,0,1-3.194,7.955,11.118,11.118,0,0,1-7.771,2.969,10.476,10.476,0,0,1-7.525-2.95,11,11,0,0,1-3.017-7.973,10.364,10.364,0,0,1,10.754-10.881m-.212,19.893c3.994,0,8.292-2.82,8.292-9.012,0-6.163-4.232-8.97-8.165-8.97-4,0-8.038,2.773-8.038,8.97,0,6.225,3.974,9.012,7.911,9.012m-25.691-19.893c4.535,0,7.675,1.882,9.165,5.466h-2.866a6.634,6.634,0,0,0-6.3-3.682c-4.626,0-7.615,3.571-7.615,9.1,0,5.637,2.918,9.139,7.615,9.139,3.014,0,5.129-1.237,6.3-3.682h2.826c-1.568,3.5-4.818,5.466-9.126,5.466a9.975,9.975,0,0,1-7.4-2.936,12.438,12.438,0,0,1,0-15.936,9.99,9.99,0,0,1,7.4-2.932m-18.109,17.818h.069a1.907,1.907,0,0,1,1.876,1.933V187a1.908,1.908,0,0,1-1.908,1.9H1794a1.914,1.914,0,0,1-1.891-1.937V186.9a1.921,1.921,0,0,1,1.913-1.891h0m44.013-18.958c-6.645,0-11.893,4.7-11.893,12.02s5.037,12.063,11.682,12.063c6.687,0,12.1-4.74,12.1-12.063S1844.678,166.048,1838.033,166.048Zm-.212,19.893c-3.64,0-6.772-2.582-6.772-7.872s3.259-7.83,6.9-7.83c3.6,0,7.026,2.539,7.026,7.83S1841.419,185.941,1837.821,185.941Zm-25.691-19.893c-6.687,0-11.428,4.74-11.428,12.02,0,7.322,4.74,12.063,11.428,12.063,5.714,0,9.438-3.174,10.75-7.745h-5.206c-.889,2.413-2.667,3.682-5.545,3.682-3.894,0-6.476-2.878-6.476-8,0-5.079,2.582-7.957,6.476-7.957a5.45,5.45,0,0,1,5.545,3.682h5.206C1821.568,168.884,1817.844,166.048,1812.13,166.048Zm-18.11,17.82a3.053,3.053,0,0,0-3.052,3.016v.074a3.053,3.053,0,0,0,3.017,3.09h.077a3.044,3.044,0,0,0,3.044-3.041v-.049a3.044,3.044,0,0,0-3-3.089h-.086Z" transform="translate(-1628.812 -156.934)"/></g></g></svg>