<svg xmlns="http://www.w3.org/2000/svg" width="385.175" height="50" viewBox="0 0 385.175 50"><defs><style>.a{fill:#463291;}</style></defs><g transform="translate(-3146.999 -2563.999)"><g transform="translate(3146.999 2563.999)"><path class="a" d="M385.415,247.979l59.171-8.316a6.505,6.505,0,0,1,.819-6.408c.034-.045.069-.092.106-.137l3.85,3.008a1.628,1.628,0,0,0,1.471,2.66c.03,0,.059-.008.086-.014l11.8-1.657.031,0,.039-.005a6.511,6.511,0,1,0-6.18-10.262l-4.245,5.435-3.849-3.007L452.633,224c.049-.069.1-.138.152-.206a11.4,11.4,0,1,1,10.687,18.142l-51.911,7.3a85.97,85.97,0,0,1-11.34.744,63.374,63.374,0,0,1-8.182-.537,41.45,41.45,0,0,1-4.958-.955c-1.075-.283-1.642-.5-1.666-.509Z" transform="translate(-385.406 -219.254)"/><path class="a" d="M472,358.408a10.259,10.259,0,0,1-18.358,4.738c-.046-.06-.091-.122-.135-.183l-.014-.018-.014-.018-3.412-4.368,2.053-1.6,3.531,4.522A7.651,7.651,0,1,0,462.9,349.4l-.071-.01-11.771-1.652c-.049-.009-.089-.015-.12-.019a2.768,2.768,0,0,0-3.056,3.457l-2.142,1.672a5.371,5.371,0,0,1-.152-4.444l.563-1.36-54.5-7.659q.244-.035.49-.067a62.494,62.494,0,0,1,8.034-.527,85.152,85.152,0,0,1,11.186.734l51.908,7.3A10.259,10.259,0,0,1,472,358.4v.006m1.128.159a11.4,11.4,0,0,0-9.7-12.873h-.007L411.5,338.4a86,86,0,0,0-11.34-.744,63.394,63.394,0,0,0-8.182.537,41.438,41.438,0,0,0-4.958.955c-1.076.283-1.642.5-1.666.509h0l59.171,8.316a6.5,6.5,0,0,0,.818,6.408c.034.045.069.092.106.137l3.85-3.007a1.628,1.628,0,0,1,1.471-2.66c.03,0,.059.008.086.014l11.8,1.657.071.01a6.511,6.511,0,0,1,5.547,7.349h0v0a6.511,6.511,0,0,1-11.726,2.907l-4.246-5.435-3.849,3.007,4.115,5.266c.049.069.1.138.152.206a11.4,11.4,0,0,0,20.394-5.268Z" transform="translate(-385.359 -318.379)"/></g><g transform="translate(3247.907 2572.301)"><path d="M8.991-168.045h4.867V-187.43h4.317v-3.936H13.858v-1.651c0-2.666,1.016-3.682,3.979-3.682v-4.021c-6.095,0-8.846,2.328-8.846,7.7v1.651H6.24v3.936H8.991Zm13.459,0h4.825v-23.321H22.45Zm2.455-26.411a3.044,3.044,0,0,0,2.171-.907,3.044,3.044,0,0,0,.876-2.183,3.044,3.044,0,0,0-.876-2.183,3.044,3.044,0,0,0-2.171-.907,3.054,3.054,0,0,0-2.2.894,3.054,3.054,0,0,0-.894,2.2,3.053,3.053,0,0,0,.894,2.2A3.053,3.053,0,0,0,24.905-194.456Zm20.781,26.411h5.46l-7.534-11.809,7.534-11.512H46.11l-4.74,7.915-5.037-7.915h-5.46l7.534,11.851-7.534,11.47H35.91l4.74-7.915ZM73.452-190.9c.3-4.021-2.455-7.238-7.576-7.238-5.037,0-8.169,2.92-8.169,6.772a8.084,8.084,0,0,0,2.243,5.629c-4.656,1.9-6.9,5.248-6.9,9.227,0,5.5,4.232,9.015,10.581,9.015a13.634,13.634,0,0,0,10.2-4.19l3.64,3.64h6.306l-7.153-7.111c.339-.55.72-1.143,1.058-1.735l3.809-6.518H76.287l-3.005,4.952L65.495-186.2c-2.074-2.243-2.963-3.555-2.963-5.164a2.89,2.89,0,0,1,3.132-2.836c1.82,0,3.047,1.143,2.963,3.3Zm-9.819,19.3c-3.471,0-5.756-2.243-5.756-5.079,0-2.624,1.566-4.656,4.994-6.01l7.788,7.83A9.263,9.263,0,0,1,63.632-171.6Zm23.913,3.555h4.867V-187.43H96.73v-3.936H92.413v-1.651c0-2.666,1.016-3.682,3.979-3.682v-4.021c-6.095,0-8.846,2.328-8.846,7.7v1.651H84.795v3.936h2.751Zm18.284-12.274c0-4.952,2.2-6.433,5.756-6.433h1.227v-4.994a7.6,7.6,0,0,0-6.984,3.767v-3.386h-4.825v23.321h4.825Zm21.247-7.365c3.6,0,6.433,2.286,6.518,5.883H120.686a6.352,6.352,0,0,1,6.391-5.883Zm10.92,12.7h-5.206a5.646,5.646,0,0,1-5.5,3.259,6.415,6.415,0,0,1-6.645-6.179h17.819a14.886,14.886,0,0,0,.169-2.37c0-6.857-4.7-11.47-11.343-11.47-6.9,0-11.639,4.7-11.639,12.02s4.952,12.063,11.639,12.063c5.714,0,9.4-3.259,10.708-7.322Zm15.195-12.7c3.6,0,6.433,2.286,6.518,5.883H146.8a6.352,6.352,0,0,1,6.391-5.883Zm10.92,12.7h-5.206a5.646,5.646,0,0,1-5.5,3.259,6.415,6.415,0,0,1-6.645-6.179h17.819a14.884,14.884,0,0,0,.169-2.37c0-6.857-4.7-11.47-11.343-11.47-6.9,0-11.639,4.7-11.639,12.02s4.952,12.063,11.639,12.063c5.714,0,9.4-3.259,10.708-7.322Z" transform="translate(-6.24 200.72)"/><path d="M2552.844,279.981v29.041H2550.3V279.981h2.546M2599.1,287.6a8.4,8.4,0,0,1,6.034,2.2,8.971,8.971,0,0,1,2.393,6.6v12.616h-2.5v-11.9c0-4.7-2.675-7.615-6.98-7.615-4.332,0-7.023,2.918-7.023,7.615v11.9h-2.545V287.98h2.545v4.708l2.021-2.456a7.841,7.841,0,0,1,6.061-2.632m-28.442,0a10.365,10.365,0,0,1,10.754,10.881,10.708,10.708,0,0,1-3.194,7.955,11.116,11.116,0,0,1-7.771,2.968,10.478,10.478,0,0,1-7.525-2.95,11,11,0,0,1-3.017-7.973,10.365,10.365,0,0,1,10.753-10.881m-.211,19.893c3.994,0,8.292-2.82,8.292-9.012,0-6.163-4.232-8.97-8.166-8.97-4,0-8.039,2.774-8.039,8.97,0,6.225,3.974,9.012,7.912,9.012m-40.59-19.893a8.743,8.743,0,0,1,7.175,3.314l2.049,2.712V287.98h2.588v21.042h-2.588v-5.769l-2.054,2.757a8.986,8.986,0,0,1-7.254,3.393,9.281,9.281,0,0,1-6.893-3.008,11.688,11.688,0,0,1-2.888-8,11.153,11.153,0,0,1,2.887-7.88,9.514,9.514,0,0,1,6.978-2.916m1.016,19.893a7.935,7.935,0,0,0,5.713-2.389,9.218,9.218,0,0,0,2.495-6.623c0-5.888-4.129-8.97-8.208-8.97s-8.208,3.052-8.208,8.885c0,5.909,4.229,9.1,8.208,9.1m-24.93-19.893c4.223,0,7.026,1.925,7.722,5.213h-2.59c-.631-2.114-2.608-3.428-5.3-3.428-3.742,0-5.076,1.944-5.076,3.764,0,2.881,3.069,3.729,6.037,4.55a18.526,18.526,0,0,1,5.124,1.957,4.633,4.633,0,0,1,2.256,4.006c-.01,3.435-3.138,5.742-7.79,5.742-4.266,0-7.6-2.149-8.413-5.255h2.755a5.632,5.632,0,0,0,5.573,3.471c4,0,5.414-2.119,5.414-3.933,0-2.805-3.077-3.629-6.052-4.426a18.762,18.762,0,0,1-5.272-1.971,4.528,4.528,0,0,1-2.22-4.1,4.872,4.872,0,0,1,1.986-3.864,9.528,9.528,0,0,1,5.848-1.726m-16.375,17.818h.07a1.9,1.9,0,0,1,1.875,1.933v.064a1.907,1.907,0,0,1-1.908,1.9h-.06a1.914,1.914,0,0,1-1.891-1.937v-.073a1.921,1.921,0,0,1,1.913-1.891h0m64.414-26.575h-4.825v31.32h4.825Zm45.118,7.618a8.969,8.969,0,0,0-6.94,3.047V286.84h-4.826v23.321h4.826V297.125c0-4.275,2.327-6.476,5.882-6.476,3.513,0,5.841,2.2,5.841,6.476v13.036h4.782V296.406C2608.667,289.888,2604.562,286.459,2599.1,286.459Zm-28.442,0c-6.645,0-11.893,4.7-11.893,12.02s5.037,12.063,11.682,12.063c6.687,0,12.1-4.74,12.1-12.062S2577.3,286.459,2570.659,286.459Zm-.211,19.893c-3.64,0-6.772-2.582-6.772-7.872s3.259-7.83,6.9-7.83c3.6,0,7.026,2.539,7.026,7.83S2574.046,306.352,2570.448,306.352Zm-40.59-19.893c-6.138,0-11,4.74-11,11.936s4.867,12.147,10.92,12.147a10.036,10.036,0,0,0,8.168-3.852v3.471h4.867V286.84h-4.867v3.386A9.927,9.927,0,0,0,2529.858,286.459Zm1.016,19.893c-3.6,0-7.067-2.92-7.067-7.957s3.47-7.745,7.067-7.745c3.641,0,7.068,2.836,7.068,7.83h0C2537.942,303.516,2534.514,306.352,2530.874,306.352Zm-24.929-19.893c-5.5,0-8.974,3.005-8.974,6.73,0,8.55,13.544,5.925,13.544,10.5,0,1.608-1.481,2.793-4.275,2.793-2.667,0-4.487-1.566-4.656-3.471h-4.995c.212,4.232,4.148,7.534,9.735,7.534,5.5,0,8.931-2.963,8.931-6.9-.254-8.423-13.417-5.8-13.417-10.5,0-1.566,1.354-2.624,3.936-2.624,2.625,0,4.19,1.4,4.36,3.428h4.825C2514.706,289.3,2511.235,286.459,2505.945,286.459Zm-16.375,17.819a3.053,3.053,0,0,0-3.052,3.016v.073a3.053,3.053,0,0,0,3.017,3.09h.076a3.044,3.044,0,0,0,3.044-3.041v-.049h0a3.044,3.044,0,0,0-3-3.09h-.087Z" transform="translate(-2324.4 -277.213)"/></g></g></svg>