<svg xmlns="http://www.w3.org/2000/svg" width="389.571" height="70" viewBox="0 0 389.571 70"><defs><style>.a{fill:#463291;}.b{fill:#fff;stroke:#707070;opacity:0;}.c{stroke:none;}.d{fill:none;}</style></defs><g transform="translate(10979.999 18262.002)"><path class="a" d="M-2564.4-2741.59c-1.175.213-2.287.372-3.3.474a23.439,23.439,0,0,1-3.261.125,15.2,15.2,0,0,1-3.274-.493,14.3,14.3,0,0,1-2.43-.888,12.113,12.113,0,0,1-1.512-.851q-.27-.177-.521-.38l51.71-14.37-.442-1.651,6.221-1.667.417,1.555,4.147-1.111a4.293,4.293,0,0,0,3.036-5.258,4.294,4.294,0,0,0-5.259-3.037,4.294,4.294,0,0,0-3.036,5.259l-6.22,1.667a10.785,10.785,0,0,1-.349-2.146,10.73,10.73,0,0,1,5.906-10.229,10.829,10.829,0,0,1,4.179-1.12,10.731,10.731,0,0,1,10.23,5.906,10.852,10.852,0,0,1,1.119,4.173,10.73,10.73,0,0,1-5.865,10.215,10.8,10.8,0,0,1-2.022.777l-44.2,11.842s-.189.054-.512.141C-2560.524-2742.42-2562.314-2741.968-2564.4-2741.59Z" transform="translate(-8401.292 -15475.072)"/><path class="a" d="M-2560.063-2520.048c-.856-.229-2.6-.669-4.629-1.037-1.134-.2-2.2-.358-3.179-.455a21.775,21.775,0,0,0-3.033-.119,13.5,13.5,0,0,0-2.925.44c-.148.039-.294.081-.439.125l47.7,13.255,1.537.427-.413,1.541-.026.1,3.111.833.417-1.555,1.555.417,4.146,1.111a5.9,5.9,0,0,1,4.174,7.23,5.9,5.9,0,0,1-7.231,4.173,5.9,5.9,0,0,1-4.374-5.617l-3.189-.854c-.007.078-.013.156-.017.234a9.066,9.066,0,0,0,.481,3.5,9.158,9.158,0,0,0,3.023,4.234,9.105,9.105,0,0,0,1.515.955,9.233,9.233,0,0,0,3.555.953,9.074,9.074,0,0,0,3.5-.482,9.152,9.152,0,0,0,4.234-3.022,9.09,9.09,0,0,0,.955-1.514,9.227,9.227,0,0,0,.952-3.55,9.058,9.058,0,0,0-.476-3.493,9.159,9.159,0,0,0-3-4.229,9.059,9.059,0,0,0-1.506-.958,9.2,9.2,0,0,0-1.711-.658l-44.227-11.851c-.019-.005-.193-.055-.481-.133m.417-1.556c.323.087.511.141.512.142l44.195,11.843a10.811,10.811,0,0,1,2.022.776,10.679,10.679,0,0,1,3.269,2.557,10.761,10.761,0,0,1,2.516,5.556,10.654,10.654,0,0,1,.08,2.1,10.832,10.832,0,0,1-1.119,4.172,10.68,10.68,0,0,1-2.553,3.29,10.771,10.771,0,0,1-5.568,2.534,10.7,10.7,0,0,1-2.108.082,10.843,10.843,0,0,1-4.179-1.12,10.678,10.678,0,0,1-3.289-2.553,10.768,10.768,0,0,1-2.534-5.568,10.714,10.714,0,0,1-.083-2.108,10.857,10.857,0,0,1,.35-2.146l6.22,1.666a4.294,4.294,0,0,0,3.036,5.258,4.294,4.294,0,0,0,5.259-3.036,4.294,4.294,0,0,0-3.036-5.258h0l-4.147-1.112-.417,1.555-6.22-1.666.442-1.652-51.709-14.369a6.007,6.007,0,0,1,.521-.38,12.009,12.009,0,0,1,1.513-.851,14.253,14.253,0,0,1,2.431-.888,15.2,15.2,0,0,1,3.273-.493,23.512,23.512,0,0,1,3.261.125c1.018.1,2.129.262,3.3.474C-2562.316-2522.292-2560.526-2521.839-2559.646-2521.6Z" transform="translate(-8401.29 -15713.973)"/><path d="M-841.445-1666.357H-846.1v20.893h-5.246v-20.893h-2.965v-4.242h2.965v-1.779q0-4.333,2.3-6.318t7.23-1.985v4.334a4.881,4.881,0,0,0-3.33.889,4.082,4.082,0,0,0-.958,3.079v1.779h4.653Z" transform="translate(-10043.281 -16564.168)"/><path d="M-540.564-1673.278a3.221,3.221,0,0,1-.958-2.372,3.222,3.222,0,0,1,.958-2.372,3.216,3.216,0,0,1,2.372-.958,3.168,3.168,0,0,1,2.327.958,3.221,3.221,0,0,1,.958,2.372,3.22,3.22,0,0,1-.958,2.372,3.17,3.17,0,0,1-2.327.958A3.22,3.22,0,0,1-540.564-1673.278Zm4.926,4.288v25.135h-5.2v-25.135Z" transform="translate(-10339.28 -16565.775)"/><path d="M-345.9-1480.421l8.12,12.727h-5.885l-5.428-8.53-5.109,8.53h-5.428l8.12-12.362-8.12-12.773h5.885l5.428,8.531,5.109-8.531h5.429Z" transform="translate(-10511.41 -16741.934)"/><path d="M112.087-1596.4l-3.923-3.923a15.345,15.345,0,0,1-4.972,3.4,15.575,15.575,0,0,1-6.021,1.118,14.258,14.258,0,0,1-5.976-1.186,9.111,9.111,0,0,1-4.014-3.4,9.321,9.321,0,0,1-1.414-5.132,9.728,9.728,0,0,1,1.87-5.862,12.454,12.454,0,0,1,5.565-4.083,11.286,11.286,0,0,1-1.87-2.988,8.363,8.363,0,0,1-.547-3.079,6.694,6.694,0,0,1,1.072-3.741,7.34,7.34,0,0,1,3.079-2.6,10.685,10.685,0,0,1,4.653-.958,9.5,9.5,0,0,1,4.584,1.026A6.72,6.72,0,0,1,107-1625a7.1,7.1,0,0,1,.753,3.969h-5.2a3.569,3.569,0,0,0-.821-2.623,3.081,3.081,0,0,0-2.372-.935,3.394,3.394,0,0,0-2.441.889,2.876,2.876,0,0,0-.935,2.167,4.788,4.788,0,0,0,.707,2.44,19.591,19.591,0,0,0,2.486,3.125l8.393,8.348,3.239-5.337h5.611l-4.106,7.025-1.14,1.87,7.709,7.664Zm-7.344-7.344-8.393-8.439q-5.383,2.145-5.383,6.478a5.056,5.056,0,0,0,1.733,3.9,6.393,6.393,0,0,0,4.47,1.574A10.1,10.1,0,0,0,104.743-1603.743Z" transform="translate(-10932.903 -16613.227)"/><path d="M736.114-1666.357h-4.653v20.893h-5.246v-20.893H723.25v-4.242h2.965v-1.779q0-4.333,2.3-6.318t7.23-1.985v4.334a4.881,4.881,0,0,0-3.33.889,4.078,4.078,0,0,0-.958,3.079v1.779h4.653Z" transform="translate(-11536.177 -16564.168)"/><path d="M1057.028-1499.413a8.982,8.982,0,0,1,4.494-1.072v5.383H1060.2a6.334,6.334,0,0,0-4.63,1.551q-1.574,1.551-1.574,5.383v13.229h-5.2v-25.135h5.2v3.65A8.163,8.163,0,0,1,1057.028-1499.413Z" transform="translate(-11844.25 -16734.688)"/><path d="M1367.465-1485.562h-19.2a6.973,6.973,0,0,0,2.235,4.836,7.054,7.054,0,0,0,4.927,1.824,6.085,6.085,0,0,0,5.93-3.512h5.611a11.324,11.324,0,0,1-4.128,5.68,12.108,12.108,0,0,1-7.413,2.212,12.831,12.831,0,0,1-6.455-1.62,11.507,11.507,0,0,1-4.47-4.561,13.923,13.923,0,0,1-1.62-6.819,14.244,14.244,0,0,1,1.574-6.82,11.062,11.062,0,0,1,4.425-4.539,13.174,13.174,0,0,1,6.546-1.6,12.8,12.8,0,0,1,6.341,1.551,10.966,10.966,0,0,1,4.333,4.356,13.132,13.132,0,0,1,1.551,6.455A16.289,16.289,0,0,1,1367.465-1485.562Zm-5.246-4.2a5.917,5.917,0,0,0-2.053-4.607,7.34,7.34,0,0,0-4.972-1.733,6.676,6.676,0,0,0-4.607,1.711,7.151,7.151,0,0,0-2.281,4.63Z" transform="translate(-12122.55 -16734.693)"/><path d="M1891.908-1485.562h-19.2a6.971,6.971,0,0,0,2.235,4.836,7.056,7.056,0,0,0,4.926,1.824,6.085,6.085,0,0,0,5.93-3.512h5.611a11.323,11.323,0,0,1-4.128,5.68,12.11,12.11,0,0,1-7.413,2.212,12.831,12.831,0,0,1-6.455-1.62,11.51,11.51,0,0,1-4.471-4.561,13.929,13.929,0,0,1-1.619-6.819,14.244,14.244,0,0,1,1.573-6.82,11.064,11.064,0,0,1,4.425-4.539,13.173,13.173,0,0,1,6.546-1.6,12.8,12.8,0,0,1,6.341,1.551,10.963,10.963,0,0,1,4.334,4.356,13.129,13.129,0,0,1,1.551,6.455A16.26,16.26,0,0,1,1891.908-1485.562Zm-5.246-4.2a5.918,5.918,0,0,0-2.052-4.607,7.341,7.341,0,0,0-4.972-1.733,6.678,6.678,0,0,0-4.608,1.711,7.151,7.151,0,0,0-2.281,4.63Z" transform="translate(-12618.848 -16734.693)"/><path d="M2390.225-1149.361a4.013,4.013,0,0,1-2.941-1.194,4.013,4.013,0,0,1-1.194-2.941,4.013,4.013,0,0,1,1.194-2.941,4.013,4.013,0,0,1,2.941-1.194,3.958,3.958,0,0,1,2.9,1.194,4.013,4.013,0,0,1,1.194,2.941,4.013,4.013,0,0,1-1.194,2.941A3.961,3.961,0,0,1,2390.225-1149.361Zm0-6.66a2.426,2.426,0,0,0-1.8.722,2.425,2.425,0,0,0-.722,1.8,2.424,2.424,0,0,0,.722,1.8,2.426,2.426,0,0,0,1.8.722,2.372,2.372,0,0,0,1.758-.722,2.428,2.428,0,0,0,.722-1.8,2.428,2.428,0,0,0-.722-1.8A2.374,2.374,0,0,0,2390.225-1156.021Z" transform="translate(-13109.775 -17059.143)"/><path d="M2599.113-1487.917a13.529,13.529,0,0,1-5.648-1.145,10.162,10.162,0,0,1-4.03-3.173,8.094,8.094,0,0,1-1.618-4.576l-.033-.837h6.959l.064.736a2.87,2.87,0,0,0,1.217,2.1,4.725,4.725,0,0,0,3,.905,5.141,5.141,0,0,0,2.937-.7,1.752,1.752,0,0,0,.865-1.507,1.433,1.433,0,0,0-.906-1.381,24.674,24.674,0,0,0-4.115-1.447,41.939,41.939,0,0,1-4.7-1.536,8.9,8.9,0,0,1-3.383-2.454,6.662,6.662,0,0,1-1.5-4.495,7,7,0,0,1,1.336-4.139,8.714,8.714,0,0,1,3.734-2.895,13.551,13.551,0,0,1,5.406-1.024,11.329,11.329,0,0,1,7.424,2.351,8.589,8.589,0,0,1,3.1,6.489l.042.844h-6.789l-.06-.74a2.906,2.906,0,0,0-1.075-2.133,4.369,4.369,0,0,0-2.821-.823,4.685,4.685,0,0,0-2.683.628,1.608,1.608,0,0,0-.754,1.4,1.417,1.417,0,0,0,.475,1.1,4.4,4.4,0,0,0,1.507.9c.679.251,1.7.574,3.039.96a34.667,34.667,0,0,1,4.595,1.519,9.2,9.2,0,0,1,3.322,2.422,6.658,6.658,0,0,1,1.522,4.393v.015a7.321,7.321,0,0,1-1.332,4.295,8.7,8.7,0,0,1-3.686,2.919A13.347,13.347,0,0,1,2599.113-1487.917Zm-9.6-8.12a6.417,6.417,0,0,0,1.219,2.844,8.575,8.575,0,0,0,3.405,2.666h0a11.933,11.933,0,0,0,4.98,1,11.755,11.755,0,0,0,4.761-.889,7.116,7.116,0,0,0,3.02-2.372,5.667,5.667,0,0,0,1.039-3.362,5.036,5.036,0,0,0-1.124-3.355,7.61,7.61,0,0,0-2.745-2,33.186,33.186,0,0,0-4.384-1.445l-.016,0c-1.38-.4-2.442-.734-3.159-1a6.011,6.011,0,0,1-2.05-1.24,3.01,3.01,0,0,1-.984-2.275,3.218,3.218,0,0,1,1.435-2.709,6.193,6.193,0,0,1,3.613-.924,5.916,5.916,0,0,1,3.838,1.184,4.4,4.4,0,0,1,1.552,2.511h3.627a6.74,6.74,0,0,0-2.437-4.482,9.777,9.777,0,0,0-6.4-1.983,11.962,11.962,0,0,0-4.767.892,7.143,7.143,0,0,0-3.062,2.351,5.354,5.354,0,0,0-1.037,3.205,5.042,5.042,0,0,0,1.1,3.442,7.315,7.315,0,0,0,2.775,2.017,40.427,40.427,0,0,0,4.515,1.474h.005a25.683,25.683,0,0,1,4.412,1.563,3.023,3.023,0,0,1,1.786,2.816,3.362,3.362,0,0,1-1.553,2.827,6.668,6.668,0,0,1-3.859.989,6.355,6.355,0,0,1-3.981-1.239,4.542,4.542,0,0,1-1.716-2.5Z" transform="translate(-13300.645 -16720.5)"/><path d="M3048.064-1487.912a11.888,11.888,0,0,1-6.354-1.786,12.637,12.637,0,0,1-4.553-4.962,15.167,15.167,0,0,1-1.667-7.149,14.773,14.773,0,0,1,1.67-7.088h0a12.392,12.392,0,0,1,4.584-4.848,12.333,12.333,0,0,1,6.411-1.733,11.813,11.813,0,0,1,5.552,1.256,12.389,12.389,0,0,1,2.356,1.591v-2.436h6.856v26.745h-6.856v-2.5a12.28,12.28,0,0,1-2.427,1.637A11.963,11.963,0,0,1,3048.064-1487.912Zm-9.487-20.221a13.185,13.185,0,0,0-1.477,6.323,13.571,13.571,0,0,0,1.481,6.4,11.061,11.061,0,0,0,3.976,4.344,10.3,10.3,0,0,0,5.507,1.544,10.366,10.366,0,0,0,4.829-1.1,9.593,9.593,0,0,0,3.33-2.731l1.45-1.95v5.366h3.636v-23.525h-3.636v5.225l-1.444-1.892a9.769,9.769,0,0,0-3.271-2.673,10.236,10.236,0,0,0-4.8-1.071,10.747,10.747,0,0,0-5.586,1.506,10.793,10.793,0,0,0-3.992,4.23Zm10.673,15.7a8.074,8.074,0,0,1-4.123-1.137,8.382,8.382,0,0,1-3.129-3.3,10.2,10.2,0,0,1-1.17-4.948,9.806,9.806,0,0,1,1.177-4.89,8.217,8.217,0,0,1,3.109-3.177,8.3,8.3,0,0,1,4.137-1.085,8.174,8.174,0,0,1,4.144,1.112,8.359,8.359,0,0,1,3.1,3.223h0a9.938,9.938,0,0,1,1.174,4.909,10.07,10.07,0,0,1-1.172,4.928,8.308,8.308,0,0,1-3.107,3.25A8.165,8.165,0,0,1,3049.25-1492.428Zm0-16.924a6.71,6.71,0,0,0-3.344.876,6.633,6.633,0,0,0-2.5,2.57,8.222,8.222,0,0,0-.968,4.1,8.61,8.61,0,0,0,.973,4.175,6.794,6.794,0,0,0,2.529,2.679,6.485,6.485,0,0,0,3.312.917,6.571,6.571,0,0,0,3.336-.9,6.723,6.723,0,0,0,2.5-2.635,8.48,8.48,0,0,0,.971-4.149,8.361,8.361,0,0,0-.969-4.123,6.768,6.768,0,0,0-2.507-2.616A6.584,6.584,0,0,0,3049.25-1509.352Z" transform="translate(-13724.325 -16720.506)"/><path d="M3650.891-1633.114h-6.811v-35.366h6.811Zm-5.2-1.61h3.59v-32.146h-3.59Z" transform="translate(-14300.255 -16575.709)"/><path d="M3850.417-1487.914a13.729,13.729,0,0,1-6.828-1.723h0a12.473,12.473,0,0,1-4.823-4.871,14.607,14.607,0,0,1-1.744-7.212,14.356,14.356,0,0,1,1.792-7.2,12.509,12.509,0,0,1,4.921-4.87,14.224,14.224,0,0,1,6.91-1.7,14.228,14.228,0,0,1,6.909,1.7,12.51,12.51,0,0,1,4.921,4.87,14.358,14.358,0,0,1,1.793,7.2,14.064,14.064,0,0,1-1.843,7.2,12.853,12.853,0,0,1-5.032,4.886A14.467,14.467,0,0,1,3850.417-1487.914Zm.228-25.956a12.635,12.635,0,0,0-6.137,1.5,10.918,10.918,0,0,0-4.293,4.254,12.757,12.757,0,0,0-1.583,6.4,13.026,13.026,0,0,0,1.541,6.427,10.885,10.885,0,0,0,4.208,4.252h0a12.129,12.129,0,0,0,6.036,1.516,12.869,12.869,0,0,0,6.208-1.522,11.258,11.258,0,0,0,4.411-4.282,12.491,12.491,0,0,0,1.624-6.391,12.768,12.768,0,0,0-1.583-6.4,10.922,10.922,0,0,0-4.294-4.254A12.637,12.637,0,0,0,3850.645-1513.87Zm-.228,21.44a7.661,7.661,0,0,1-5.81-2.467,9.622,9.622,0,0,1-2.294-6.823,10.611,10.611,0,0,1,1.1-5.007,7.661,7.661,0,0,1,3.032-3.176,8.318,8.318,0,0,1,4.111-1.06,8.442,8.442,0,0,1,4.129,1.058,7.916,7.916,0,0,1,3.1,3.165,10.268,10.268,0,0,1,1.15,5.021,10.069,10.069,0,0,1-1.2,5.052,8.12,8.12,0,0,1-3.164,3.181h0A8.573,8.573,0,0,1,3850.417-1492.43Zm.137-16.924a6.722,6.722,0,0,0-3.325.855,6.074,6.074,0,0,0-2.4,2.526,9.039,9.039,0,0,0-.91,4.253,8.093,8.093,0,0,0,1.857,5.721,6.033,6.033,0,0,0,4.637,1.958,6.986,6.986,0,0,0,3.378-.86h0a6.546,6.546,0,0,0,2.538-2.567,8.5,8.5,0,0,0,.988-4.253,8.689,8.689,0,0,0-.948-4.24,6.324,6.324,0,0,0-2.468-2.537A6.845,6.845,0,0,0,3850.554-1509.354Z" transform="translate(-14482.84 -16720.504)"/><path d="M4435.359-1488.325h-6.765v-14.855a6.575,6.575,0,0,0-1.47-4.627,5.2,5.2,0,0,0-4.02-1.547,5.271,5.271,0,0,0-4.048,1.551,6.508,6.508,0,0,0-1.489,4.623v14.855h-6.81v-26.745h6.81v1.782a9.979,9.979,0,0,1,2.135-1.259,11.288,11.288,0,0,1,4.542-.934,12.127,12.127,0,0,1,5.688,1.323h0a9.6,9.6,0,0,1,4,3.976,12.855,12.855,0,0,1,1.422,6.225Zm-5.154-1.61h3.544v-14.02a11.283,11.283,0,0,0-1.224-5.452,8.015,8.015,0,0,0-3.341-3.323h0a10.527,10.527,0,0,0-4.939-1.14,9.682,9.682,0,0,0-3.9.8,7.858,7.858,0,0,0-2.962,2.191l-1.426,1.732v-4.313h-3.591v23.525h3.591v-13.245a8.038,8.038,0,0,1,1.931-5.731,6.883,6.883,0,0,1,5.215-2.053,6.8,6.8,0,0,1,5.194,2.057,8.1,8.1,0,0,1,1.905,5.728Z" transform="translate(-15025.787 -16720.502)"/><g class="b" transform="translate(-10951.998 -18262.002)"><rect class="c" width="15.4" height="70"/><rect class="d" x="0.5" y="0.5" width="14.4" height="69"/></g></g></svg>