<svg xmlns="http://www.w3.org/2000/svg" width="14.402" height="19.963" viewBox="0 0 14.402 19.963"> <defs> <style>.a{fill: #463291;}</style> </defs> <path class="a" d="M-2840.731-3120.9h0l-4.56-4.556a7.844,7.844,0,0,1-.527-.583,7.665,7.665,0,0,1-.457-.621c-.139-.21-.269-.431-.387-.654s-.222-.45-.316-.681-.176-.465-.246-.7-.129-.478-.176-.719-.082-.486-.105-.73-.035-.491-.035-.735.012-.492.035-.736.059-.49.105-.73.106-.483.176-.719.153-.474.246-.7.2-.46.316-.681.248-.443.387-.654.294-.421.457-.621a7.837,7.837,0,0,1,.527-.583l4.561-4.557.016.016h-.016v2.6l-3.035,3.033a6.244,6.244,0,0,0-.422.466,6.126,6.126,0,0,0,0,7.748c.114.14.236.276.362.406l3.094-3.086v2.6l-1.792,1.787,1.793,1.792v2.6Z" transform="translate(2847.54 3140.86)"/> <path class="a" d="M-2352.631-3139.754v1.311l2.9,2.9a6.665,6.665,0,0,1,.453.5,6.511,6.511,0,0,1,.393.534,6.559,6.559,0,0,1,.6,1.148,6.592,6.592,0,0,1,.363,1.223,6.637,6.637,0,0,1,.121,1.26,6.639,6.639,0,0,1-.072.977l-.135.9-.646-.646-3.979-3.976v1.3l3.987,3.984.241.24-.159.3c-.1.187-.208.37-.324.546s-.253.363-.393.534-.294.341-.453.5l-2.9,2.9v1.3l3.774-3.771a7.315,7.315,0,0,0,.5-.548,7.2,7.2,0,0,0,.429-.583c.131-.2.253-.4.363-.614s.209-.422.3-.64.165-.437.231-.66.121-.449.165-.676.077-.457.1-.687.033-.461.033-.691-.011-.462-.033-.691-.055-.46-.1-.686-.1-.455-.165-.676-.144-.445-.231-.66-.188-.433-.3-.64-.232-.416-.363-.614a7.138,7.138,0,0,0-.429-.583,7.315,7.315,0,0,0-.5-.548l-3.774-3.771m-.461-1.112h0l4.56,4.556a7.786,7.786,0,0,1,.527.583q.244.3.457.621c.139.211.269.431.386.654s.223.45.316.681.176.466.246.7.129.478.176.719.082.486.105.73.035.491.035.735-.012.492-.035.735-.059.49-.105.73-.106.483-.176.719-.153.474-.246.7-.2.46-.316.681-.247.443-.386.654-.294.422-.457.621a7.787,7.787,0,0,1-.527.583l-4.56,4.557v-2.6l3.035-3.033a6.251,6.251,0,0,0,.422-.466,6.151,6.151,0,0,0,.365-.5q.163-.246.3-.507l-4.122-4.119v-2.6l4.766,4.762a6.223,6.223,0,0,0,.067-.909,6.17,6.17,0,0,0-.112-1.171,6.148,6.148,0,0,0-.338-1.138,6.1,6.1,0,0,0-.562-1.067,6.108,6.108,0,0,0-.365-.5,6.207,6.207,0,0,0-.422-.466l-3.035-3.033Z" transform="translate(2360.684 3140.866)"/></svg>