<svg xmlns="http://www.w3.org/2000/svg" width="16.878" height="19.963" viewBox="0 0 16.878 19.963"><defs><style>.a{fill:#463291;}</style></defs><g transform="translate(0 0)"><path class="a" d="M-3263.553-2367.89h2l-3.241,14.05h-2Z" transform="translate(3266.794 2367.89)"/><path class="a" d="M-3011.3-2097.376h-.446l1.283-5.529h2l-.855,3.686h7.235l-.43,1.843Z" transform="translate(3015.663 2106.974)"/><path class="a" d="M-2507.1-1969.236l3.028-13.128h-1.051l-3.029,13.128h1.051m.366.461h-2l3.241-14.05h2Z" transform="translate(2520.372 1988.738)"/><path class="a" d="M-3050.934-1692.429l-.215.921h7.235l-.131.565-.724,3.121h1.051l1.069-4.607h-8.284m-.365-.461h9.229l-1.283,5.528h-2l.855-3.686h-7.235Z" transform="translate(3055.032 1703.255)"/></g></svg>