<svg xmlns="http://www.w3.org/2000/svg" width="20.51" height="13.821" viewBox="0 0 20.51 13.821"><defs><style>.a{fill:#463291;}</style></defs><g transform="translate(0)"><g transform="translate(0 0)"><path class="a" d="M-2574.614-2765.961c-.336.061-.654.106-.946.136a6.74,6.74,0,0,1-.933.036,4.36,4.36,0,0,1-.937-.141,4.1,4.1,0,0,1-.7-.254,3.453,3.453,0,0,1-.433-.244q-.077-.051-.149-.108l14.8-4.112-.126-.472,1.78-.477.119.445,1.187-.318a1.229,1.229,0,0,0,.869-1.5,1.229,1.229,0,0,0-1.5-.869,1.229,1.229,0,0,0-.869,1.5l-1.78.477a3.1,3.1,0,0,1-.1-.614,3.069,3.069,0,0,1,1.69-2.927,3.1,3.1,0,0,1,1.2-.321,3.07,3.07,0,0,1,2.927,1.69,3.1,3.1,0,0,1,.32,1.194,3.07,3.07,0,0,1-1.678,2.923,3.1,3.1,0,0,1-.578.222l-12.646,3.389-.146.04C-2573.5-2766.2-2574.016-2766.069-2574.614-2765.961Z" transform="translate(2578.706 2775.729)"/><path class="a" d="M-2573.373-2522.357c-.245-.065-.743-.191-1.325-.3-.325-.059-.631-.1-.91-.131a6.278,6.278,0,0,0-.868-.034,3.879,3.879,0,0,0-.837.126l-.126.036,13.649,3.793.44.122-.118.441-.007.028.89.238.119-.445.445.119,1.187.318a1.689,1.689,0,0,1,1.194,2.069,1.689,1.689,0,0,1-2.069,1.194,1.689,1.689,0,0,1-1.252-1.607l-.912-.245c0,.022,0,.045-.005.067a2.6,2.6,0,0,0,.138,1,2.618,2.618,0,0,0,.865,1.211,2.6,2.6,0,0,0,.434.273,2.641,2.641,0,0,0,1.017.272,2.6,2.6,0,0,0,1-.138,2.618,2.618,0,0,0,1.211-.865,2.578,2.578,0,0,0,.273-.433,2.65,2.65,0,0,0,.272-1.016,2.594,2.594,0,0,0-.136-1,2.619,2.619,0,0,0-.859-1.21,2.581,2.581,0,0,0-.431-.274,2.646,2.646,0,0,0-.49-.188l-12.655-3.391-.137-.038m.119-.445.147.041,12.646,3.388a3.094,3.094,0,0,1,.579.222,3.059,3.059,0,0,1,.935.732,3.076,3.076,0,0,1,.72,1.59,3.04,3.04,0,0,1,.023.6,3.106,3.106,0,0,1-.32,1.194,3.056,3.056,0,0,1-.731.941,3.079,3.079,0,0,1-1.593.725,3.058,3.058,0,0,1-.6.024,3.1,3.1,0,0,1-1.2-.32,3.057,3.057,0,0,1-.941-.731,3.081,3.081,0,0,1-.725-1.593,3.061,3.061,0,0,1-.024-.6,3.093,3.093,0,0,1,.1-.614l1.78.477a1.229,1.229,0,0,0,.869,1.5,1.229,1.229,0,0,0,1.5-.869,1.228,1.228,0,0,0-.869-1.5h0l-1.187-.318-.119.445-1.78-.477.127-.473-14.8-4.111a1.844,1.844,0,0,1,.149-.109,3.408,3.408,0,0,1,.433-.243,4.038,4.038,0,0,1,.7-.254,4.323,4.323,0,0,1,.937-.141,6.71,6.71,0,0,1,.933.036c.291.03.609.075.945.135.6.108,1.11.238,1.362.305Z" transform="translate(2578.708 2527.159)"/></g></g></svg>