<svg xmlns="http://www.w3.org/2000/svg" width="19.956" height="19.96" viewBox="0 0 19.956 19.96"><defs><style>.a{fill:#463291;}</style></defs><path class="a" d="M-4018.3-2526.078l1.835,1.063,3.6-2.078v-2.125Z" transform="translate(4024.577 2533.469)"/><path class="a" d="M-4415.4-2806.07v2.138l-8.035,4.646,7.307,4.213-1.843,1.067-9.138-5.28Z" transform="translate(4427.111 2806.07)"/><path class="a" d="M-3886.51-2056.113l-3.137,1.812v1.061l4.053-2.342-.916-.53m0-.532,1.835,1.063-5.434,3.139v-2.125Z" transform="translate(3898.353 2068.151)"/><path class="a" d="M-3889.54-2280.515l10.329-5.984-8.218-4.749-.922.534,6.616,3.815.691.4-.691.4-7.805,4.512v1.073m-.46.8v-2.138l8.035-4.646-7.307-4.213,1.843-1.067,9.138,5.281Z" transform="translate(3898.247 2299.676)"/></svg>